<mxfile host="app.diagrams.net" agent="Mozilla/5.0 (Macintosh; Intel Mac OS X 10_15_7) AppleWebKit/537.36 (KHTML, like Gecko) Chrome/139.0.0.0 Safari/537.36" version="28.1.2">
  <diagram name="Page-1" id="HDY-TRAgc5yvLce3hzVx">
    <mxGraphModel dx="4425" dy="2645" grid="1" gridSize="10" guides="0" tooltips="1" connect="1" arrows="1" fold="1" page="1" pageScale="1" pageWidth="1169" pageHeight="1654" math="0" shadow="0">
      <root>
        <mxCell id="0" />
        <mxCell id="1" parent="0" />
        <mxCell id="pppeQQV8sNg-4FHpJXWI-649" value="" style="rounded=0;whiteSpace=wrap;html=1;dashed=1;dashPattern=8 8;" vertex="1" parent="1">
          <mxGeometry x="2310" y="580" width="940" height="960" as="geometry" />
        </mxCell>
        <mxCell id="pppeQQV8sNg-4FHpJXWI-84" value="" style="rounded=0;whiteSpace=wrap;html=1;" vertex="1" parent="1">
          <mxGeometry x="1760" width="120" height="120" as="geometry" />
        </mxCell>
        <mxCell id="pppeQQV8sNg-4FHpJXWI-90" value="" style="rounded=0;whiteSpace=wrap;html=1;" vertex="1" parent="1">
          <mxGeometry x="2040" width="160" height="160" as="geometry" />
        </mxCell>
        <mxCell id="pppeQQV8sNg-4FHpJXWI-97" value="" style="rounded=0;whiteSpace=wrap;html=1;" vertex="1" parent="1">
          <mxGeometry x="1920" y="20" width="80" height="80" as="geometry" />
        </mxCell>
        <mxCell id="pppeQQV8sNg-4FHpJXWI-34" value="" style="rounded=0;whiteSpace=wrap;html=1;" vertex="1" parent="1">
          <mxGeometry x="1320" y="290" width="130" height="110.5" as="geometry" />
        </mxCell>
        <mxCell id="pppeQQV8sNg-4FHpJXWI-10" style="edgeStyle=orthogonalEdgeStyle;rounded=0;orthogonalLoop=1;jettySize=auto;html=1;exitX=0.25;exitY=0;exitDx=0;exitDy=0;entryX=0.5;entryY=1;entryDx=0;entryDy=0;" edge="1" parent="1" source="pppeQQV8sNg-4FHpJXWI-1" target="pppeQQV8sNg-4FHpJXWI-7">
          <mxGeometry relative="1" as="geometry" />
        </mxCell>
        <mxCell id="pppeQQV8sNg-4FHpJXWI-14" style="edgeStyle=orthogonalEdgeStyle;rounded=0;orthogonalLoop=1;jettySize=auto;html=1;exitX=1;exitY=0.25;exitDx=0;exitDy=0;entryX=0;entryY=0.25;entryDx=0;entryDy=0;" edge="1" parent="1" source="pppeQQV8sNg-4FHpJXWI-1" target="pppeQQV8sNg-4FHpJXWI-2">
          <mxGeometry relative="1" as="geometry" />
        </mxCell>
        <mxCell id="pppeQQV8sNg-4FHpJXWI-22" style="edgeStyle=orthogonalEdgeStyle;rounded=0;orthogonalLoop=1;jettySize=auto;html=1;exitX=0;exitY=0.5;exitDx=0;exitDy=0;entryX=1;entryY=0.5;entryDx=0;entryDy=0;" edge="1" parent="1" source="pppeQQV8sNg-4FHpJXWI-1" target="pppeQQV8sNg-4FHpJXWI-15">
          <mxGeometry relative="1" as="geometry" />
        </mxCell>
        <mxCell id="pppeQQV8sNg-4FHpJXWI-1" value="" style="rounded=0;whiteSpace=wrap;html=1;" vertex="1" parent="1">
          <mxGeometry x="350" y="360" width="200" height="170" as="geometry" />
        </mxCell>
        <mxCell id="pppeQQV8sNg-4FHpJXWI-2" value="" style="rounded=0;whiteSpace=wrap;html=1;" vertex="1" parent="1">
          <mxGeometry x="630" y="360" width="200" height="170" as="geometry" />
        </mxCell>
        <mxCell id="pppeQQV8sNg-4FHpJXWI-3" value="🔑" style="text;html=1;align=center;verticalAlign=middle;whiteSpace=wrap;rounded=0;fontSize=20;" vertex="1" parent="1">
          <mxGeometry x="425" y="430" width="50" height="50" as="geometry" />
        </mxCell>
        <mxCell id="pppeQQV8sNg-4FHpJXWI-4" value="🔒" style="text;html=1;align=center;verticalAlign=middle;whiteSpace=wrap;rounded=0;fontSize=20;" vertex="1" parent="1">
          <mxGeometry x="510" y="380" width="50" height="50" as="geometry" />
        </mxCell>
        <mxCell id="pppeQQV8sNg-4FHpJXWI-5" value="🔒" style="text;html=1;align=center;verticalAlign=middle;whiteSpace=wrap;rounded=0;fontSize=20;" vertex="1" parent="1">
          <mxGeometry x="375" y="350" width="50" height="50" as="geometry" />
        </mxCell>
        <mxCell id="pppeQQV8sNg-4FHpJXWI-6" value="🔑" style="text;html=1;align=center;verticalAlign=middle;whiteSpace=wrap;rounded=0;fontSize=20;" vertex="1" parent="1">
          <mxGeometry x="705" y="410" width="50" height="50" as="geometry" />
        </mxCell>
        <mxCell id="pppeQQV8sNg-4FHpJXWI-7" value="" style="rounded=0;whiteSpace=wrap;html=1;" vertex="1" parent="1">
          <mxGeometry x="300" y="120" width="200" height="170" as="geometry" />
        </mxCell>
        <mxCell id="pppeQQV8sNg-4FHpJXWI-8" value="🔑" style="text;html=1;align=center;verticalAlign=middle;whiteSpace=wrap;rounded=0;fontSize=20;" vertex="1" parent="1">
          <mxGeometry x="357.5" y="180" width="50" height="50" as="geometry" />
        </mxCell>
        <mxCell id="pppeQQV8sNg-4FHpJXWI-15" value="" style="rounded=0;whiteSpace=wrap;html=1;" vertex="1" parent="1">
          <mxGeometry x="80" y="360" width="200" height="170" as="geometry" />
        </mxCell>
        <mxCell id="pppeQQV8sNg-4FHpJXWI-18" style="edgeStyle=orthogonalEdgeStyle;rounded=0;orthogonalLoop=1;jettySize=auto;html=1;exitX=0.5;exitY=0;exitDx=0;exitDy=0;entryX=0.5;entryY=1;entryDx=0;entryDy=0;" edge="1" parent="1" source="pppeQQV8sNg-4FHpJXWI-16" target="pppeQQV8sNg-4FHpJXWI-1">
          <mxGeometry relative="1" as="geometry" />
        </mxCell>
        <mxCell id="pppeQQV8sNg-4FHpJXWI-16" value="start" style="rounded=0;whiteSpace=wrap;html=1;fillColor=#b0e3e6;strokeColor=#0e8088;" vertex="1" parent="1">
          <mxGeometry x="410" y="560" width="80" height="40" as="geometry" />
        </mxCell>
        <mxCell id="pppeQQV8sNg-4FHpJXWI-19" value="🗝️" style="text;html=1;align=center;verticalAlign=middle;whiteSpace=wrap;rounded=1;fontSize=20;fillColor=#fad9d5;strokeColor=#ae4132;" vertex="1" parent="1">
          <mxGeometry x="412.5" y="190" width="30" height="30" as="geometry" />
        </mxCell>
        <mxCell id="pppeQQV8sNg-4FHpJXWI-20" value="🔒" style="text;html=1;align=center;verticalAlign=middle;whiteSpace=wrap;rounded=1;fontSize=20;fillColor=#fad9d5;strokeColor=#ae4132;" vertex="1" parent="1">
          <mxGeometry x="352.5" y="425" width="30" height="30" as="geometry" />
        </mxCell>
        <mxCell id="pppeQQV8sNg-4FHpJXWI-21" value="🔒" style="text;html=1;align=center;verticalAlign=middle;whiteSpace=wrap;rounded=1;fontSize=20;fillColor=#b1ddf0;strokeColor=#10739e;" vertex="1" parent="1">
          <mxGeometry x="367.5" y="435" width="30" height="30" as="geometry" />
        </mxCell>
        <mxCell id="pppeQQV8sNg-4FHpJXWI-23" value="🗝️" style="text;html=1;align=center;verticalAlign=middle;whiteSpace=wrap;rounded=1;fontSize=20;fillColor=#b1ddf0;strokeColor=#10739e;" vertex="1" parent="1">
          <mxGeometry x="755" y="420" width="30" height="30" as="geometry" />
        </mxCell>
        <mxCell id="pppeQQV8sNg-4FHpJXWI-24" value="🚪&lt;div&gt;&lt;font style=&quot;font-size: 12px;&quot;&gt;exit&lt;/font&gt;&lt;/div&gt;" style="text;html=1;align=center;verticalAlign=middle;whiteSpace=wrap;rounded=1;fontSize=20;fillColor=#b1ddf0;strokeColor=#10739e;" vertex="1" parent="1">
          <mxGeometry x="165" y="410" width="55" height="70" as="geometry" />
        </mxCell>
        <mxCell id="pppeQQV8sNg-4FHpJXWI-28" style="edgeStyle=orthogonalEdgeStyle;rounded=0;orthogonalLoop=1;jettySize=auto;html=1;entryX=0.5;entryY=0;entryDx=0;entryDy=0;" edge="1" parent="1" source="pppeQQV8sNg-4FHpJXWI-26" target="pppeQQV8sNg-4FHpJXWI-27">
          <mxGeometry relative="1" as="geometry" />
        </mxCell>
        <mxCell id="pppeQQV8sNg-4FHpJXWI-26" value="start" style="rounded=0;whiteSpace=wrap;html=1;fillColor=#b0e3e6;strokeColor=#0e8088;" vertex="1" parent="1">
          <mxGeometry x="1160" y="200" width="80" height="40" as="geometry" />
        </mxCell>
        <mxCell id="pppeQQV8sNg-4FHpJXWI-39" style="edgeStyle=orthogonalEdgeStyle;rounded=0;orthogonalLoop=1;jettySize=auto;html=1;" edge="1" parent="1" source="pppeQQV8sNg-4FHpJXWI-27" target="pppeQQV8sNg-4FHpJXWI-30">
          <mxGeometry relative="1" as="geometry" />
        </mxCell>
        <mxCell id="pppeQQV8sNg-4FHpJXWI-42" style="edgeStyle=orthogonalEdgeStyle;rounded=0;orthogonalLoop=1;jettySize=auto;html=1;entryX=0;entryY=0.5;entryDx=0;entryDy=0;" edge="1" parent="1" source="pppeQQV8sNg-4FHpJXWI-31" target="pppeQQV8sNg-4FHpJXWI-34">
          <mxGeometry relative="1" as="geometry" />
        </mxCell>
        <mxCell id="pppeQQV8sNg-4FHpJXWI-27" value="" style="rounded=0;whiteSpace=wrap;html=1;" vertex="1" parent="1">
          <mxGeometry x="1135" y="290" width="130" height="110.5" as="geometry" />
        </mxCell>
        <mxCell id="pppeQQV8sNg-4FHpJXWI-47" style="edgeStyle=orthogonalEdgeStyle;rounded=0;orthogonalLoop=1;jettySize=auto;html=1;entryX=1;entryY=0.5;entryDx=0;entryDy=0;" edge="1" parent="1" source="pppeQQV8sNg-4FHpJXWI-30" target="pppeQQV8sNg-4FHpJXWI-46">
          <mxGeometry relative="1" as="geometry" />
        </mxCell>
        <mxCell id="pppeQQV8sNg-4FHpJXWI-52" style="edgeStyle=orthogonalEdgeStyle;rounded=0;orthogonalLoop=1;jettySize=auto;html=1;entryX=0.5;entryY=0;entryDx=0;entryDy=0;" edge="1" parent="1" source="pppeQQV8sNg-4FHpJXWI-30" target="pppeQQV8sNg-4FHpJXWI-50">
          <mxGeometry relative="1" as="geometry" />
        </mxCell>
        <mxCell id="pppeQQV8sNg-4FHpJXWI-30" value="" style="rounded=0;whiteSpace=wrap;html=1;" vertex="1" parent="1">
          <mxGeometry x="1135" y="450" width="130" height="110.5" as="geometry" />
        </mxCell>
        <mxCell id="pppeQQV8sNg-4FHpJXWI-32" value="🗝️" style="text;html=1;align=center;verticalAlign=middle;whiteSpace=wrap;rounded=1;fontSize=20;fillColor=#b1ddf0;strokeColor=#10739e;" vertex="1" parent="1">
          <mxGeometry x="1220" y="490" width="30" height="30" as="geometry" />
        </mxCell>
        <mxCell id="pppeQQV8sNg-4FHpJXWI-33" value="🗝️" style="text;html=1;align=center;verticalAlign=middle;whiteSpace=wrap;rounded=1;fontSize=20;fillColor=#fad9d5;strokeColor=#ae4132;" vertex="1" parent="1">
          <mxGeometry x="1330" y="360.25" width="30" height="30" as="geometry" />
        </mxCell>
        <mxCell id="pppeQQV8sNg-4FHpJXWI-41" style="edgeStyle=orthogonalEdgeStyle;rounded=0;orthogonalLoop=1;jettySize=auto;html=1;entryX=1;entryY=0.5;entryDx=0;entryDy=0;" edge="1" parent="1" source="pppeQQV8sNg-4FHpJXWI-35" target="pppeQQV8sNg-4FHpJXWI-37">
          <mxGeometry relative="1" as="geometry" />
        </mxCell>
        <mxCell id="pppeQQV8sNg-4FHpJXWI-35" value="🔒" style="text;html=1;align=center;verticalAlign=middle;whiteSpace=wrap;rounded=1;fontSize=20;fillColor=#fad9d5;strokeColor=#ae4132;" vertex="1" parent="1">
          <mxGeometry x="1120" y="330.25" width="30" height="30" as="geometry" />
        </mxCell>
        <mxCell id="pppeQQV8sNg-4FHpJXWI-37" value="" style="rounded=0;whiteSpace=wrap;html=1;" vertex="1" parent="1">
          <mxGeometry x="960" y="290" width="130" height="110.5" as="geometry" />
        </mxCell>
        <mxCell id="pppeQQV8sNg-4FHpJXWI-36" value="🔒" style="text;html=1;align=center;verticalAlign=middle;whiteSpace=wrap;rounded=1;fontSize=20;fillColor=#d5e8d4;strokeColor=#82b366;" vertex="1" parent="1">
          <mxGeometry x="1120" y="490" width="30" height="30" as="geometry" />
        </mxCell>
        <mxCell id="pppeQQV8sNg-4FHpJXWI-40" value="🗝️" style="text;html=1;align=center;verticalAlign=middle;whiteSpace=wrap;rounded=1;fontSize=20;fillColor=#d5e8d4;strokeColor=#82b366;" vertex="1" parent="1">
          <mxGeometry x="990" y="330.25" width="30" height="30" as="geometry" />
        </mxCell>
        <mxCell id="pppeQQV8sNg-4FHpJXWI-31" value="🔒" style="text;html=1;align=center;verticalAlign=middle;whiteSpace=wrap;rounded=1;fontSize=20;fillColor=#b1ddf0;strokeColor=#10739e;" vertex="1" parent="1">
          <mxGeometry x="1250" y="330.25" width="30" height="30" as="geometry" />
        </mxCell>
        <mxCell id="pppeQQV8sNg-4FHpJXWI-44" value="" style="rounded=0;whiteSpace=wrap;html=1;" vertex="1" parent="1">
          <mxGeometry x="1170" y="315" width="60" height="60.5" as="geometry" />
        </mxCell>
        <mxCell id="pppeQQV8sNg-4FHpJXWI-46" value="" style="rounded=0;whiteSpace=wrap;html=1;" vertex="1" parent="1">
          <mxGeometry x="960" y="449.75" width="130" height="110.5" as="geometry" />
        </mxCell>
        <mxCell id="pppeQQV8sNg-4FHpJXWI-45" value="🗝️" style="text;html=1;align=center;verticalAlign=middle;whiteSpace=wrap;rounded=1;fontSize=20;fillColor=#e1d5e7;strokeColor=#9673a6;" vertex="1" parent="1">
          <mxGeometry x="990" y="490" width="30" height="30" as="geometry" />
        </mxCell>
        <mxCell id="pppeQQV8sNg-4FHpJXWI-48" value="🔒" style="text;html=1;align=center;verticalAlign=middle;whiteSpace=wrap;rounded=1;fontSize=20;fillColor=#e1d5e7;strokeColor=#9673a6;" vertex="1" parent="1">
          <mxGeometry x="1185" y="300.25" width="30" height="30" as="geometry" />
        </mxCell>
        <mxCell id="pppeQQV8sNg-4FHpJXWI-50" value="" style="rounded=0;whiteSpace=wrap;html=1;" vertex="1" parent="1">
          <mxGeometry x="1135" y="600" width="130" height="110.5" as="geometry" />
        </mxCell>
        <mxCell id="pppeQQV8sNg-4FHpJXWI-49" value="🚪&lt;div&gt;&lt;font style=&quot;font-size: 12px;&quot;&gt;exit&lt;/font&gt;&lt;/div&gt;" style="text;html=1;align=center;verticalAlign=middle;whiteSpace=wrap;rounded=1;fontSize=20;fillColor=#b1ddf0;strokeColor=#10739e;" vertex="1" parent="1">
          <mxGeometry x="1172.5" y="620.25" width="55" height="70" as="geometry" />
        </mxCell>
        <mxCell id="pppeQQV8sNg-4FHpJXWI-51" value="🔒" style="text;html=1;align=center;verticalAlign=middle;whiteSpace=wrap;rounded=1;fontSize=20;fillColor=#fff2cc;strokeColor=#d6b656;" vertex="1" parent="1">
          <mxGeometry x="1185" y="540" width="30" height="30" as="geometry" />
        </mxCell>
        <mxCell id="pppeQQV8sNg-4FHpJXWI-53" value="🗝️" style="text;html=1;align=center;verticalAlign=middle;whiteSpace=wrap;rounded=1;fontSize=20;fillColor=#fff2cc;strokeColor=#d6b656;" vertex="1" parent="1">
          <mxGeometry x="1185" y="340" width="30" height="30" as="geometry" />
        </mxCell>
        <mxCell id="pppeQQV8sNg-4FHpJXWI-55" style="edgeStyle=orthogonalEdgeStyle;rounded=0;orthogonalLoop=1;jettySize=auto;html=1;entryX=0.5;entryY=0;entryDx=0;entryDy=0;" edge="1" parent="1" source="pppeQQV8sNg-4FHpJXWI-56">
          <mxGeometry relative="1" as="geometry">
            <mxPoint x="1760" y="290" as="targetPoint" />
          </mxGeometry>
        </mxCell>
        <mxCell id="pppeQQV8sNg-4FHpJXWI-56" value="start" style="rounded=0;whiteSpace=wrap;html=1;fillColor=#b0e3e6;strokeColor=#0e8088;" vertex="1" parent="1">
          <mxGeometry x="1720" y="180" width="80" height="40" as="geometry" />
        </mxCell>
        <mxCell id="pppeQQV8sNg-4FHpJXWI-89" value="" style="rounded=0;whiteSpace=wrap;html=1;" vertex="1" parent="1">
          <mxGeometry x="1880" y="320" width="80" height="80" as="geometry" />
        </mxCell>
        <mxCell id="pppeQQV8sNg-4FHpJXWI-91" value="" style="rounded=0;whiteSpace=wrap;html=1;" vertex="1" parent="1">
          <mxGeometry x="1680" y="290" width="160" height="160" as="geometry" />
        </mxCell>
        <mxCell id="pppeQQV8sNg-4FHpJXWI-92" value="" style="rounded=0;whiteSpace=wrap;html=1;" vertex="1" parent="1">
          <mxGeometry x="1720" y="490" width="80" height="80" as="geometry" />
        </mxCell>
        <mxCell id="pppeQQV8sNg-4FHpJXWI-93" value="" style="rounded=0;whiteSpace=wrap;html=1;" vertex="1" parent="1">
          <mxGeometry x="1560" y="320.5" width="80" height="80" as="geometry" />
        </mxCell>
        <mxCell id="pppeQQV8sNg-4FHpJXWI-94" value="🔑" style="text;html=1;align=center;verticalAlign=middle;whiteSpace=wrap;rounded=1;fontSize=20;fillColor=#e1d5e7;strokeColor=#9673a6;" vertex="1" parent="1">
          <mxGeometry x="1800" y="300.25" width="30" height="30" as="geometry" />
        </mxCell>
        <mxCell id="pppeQQV8sNg-4FHpJXWI-95" value="🔑" style="text;html=1;align=center;verticalAlign=middle;whiteSpace=wrap;rounded=1;fontSize=20;fillColor=#fad9d5;strokeColor=#ae4132;" vertex="1" parent="1">
          <mxGeometry x="1690" y="300.25" width="30" height="30" as="geometry" />
        </mxCell>
        <mxCell id="pppeQQV8sNg-4FHpJXWI-96" value="🔑" style="text;html=1;align=center;verticalAlign=middle;whiteSpace=wrap;rounded=1;fontSize=20;fillColor=#b1ddf0;strokeColor=#10739e;" vertex="1" parent="1">
          <mxGeometry x="1690" y="410" width="30" height="30" as="geometry" />
        </mxCell>
        <mxCell id="pppeQQV8sNg-4FHpJXWI-66" value="🔒" style="text;html=1;align=center;verticalAlign=middle;whiteSpace=wrap;rounded=1;fontSize=20;fillColor=#fad9d5;strokeColor=#ae4132;" vertex="1" parent="1">
          <mxGeometry x="1490" y="10" width="30" height="30" as="geometry" />
        </mxCell>
        <mxCell id="pppeQQV8sNg-4FHpJXWI-73" value="🔑" style="text;html=1;align=center;verticalAlign=middle;whiteSpace=wrap;rounded=1;fontSize=20;fillColor=#e1d5e7;strokeColor=#9673a6;" vertex="1" parent="1">
          <mxGeometry x="1570" y="50" width="30" height="30" as="geometry" />
        </mxCell>
        <mxCell id="pppeQQV8sNg-4FHpJXWI-74" value="🔒" style="text;html=1;align=center;verticalAlign=middle;whiteSpace=wrap;rounded=1;fontSize=20;fillColor=#e1d5e7;strokeColor=#9673a6;" vertex="1" parent="1">
          <mxGeometry x="1570" y="10" width="30" height="30" as="geometry" />
        </mxCell>
        <mxCell id="pppeQQV8sNg-4FHpJXWI-79" value="🔑" style="text;html=1;align=center;verticalAlign=middle;whiteSpace=wrap;rounded=1;fontSize=20;fillColor=#fad9d5;strokeColor=#ae4132;" vertex="1" parent="1">
          <mxGeometry x="1490" y="50" width="30" height="30" as="geometry" />
        </mxCell>
        <mxCell id="pppeQQV8sNg-4FHpJXWI-80" value="🔒" style="text;html=1;align=center;verticalAlign=middle;whiteSpace=wrap;rounded=1;fontSize=20;fillColor=#b1ddf0;strokeColor=#10739e;" vertex="1" parent="1">
          <mxGeometry x="1530" y="10" width="30" height="30" as="geometry" />
        </mxCell>
        <mxCell id="pppeQQV8sNg-4FHpJXWI-81" value="🔑" style="text;html=1;align=center;verticalAlign=middle;whiteSpace=wrap;rounded=1;fontSize=20;fillColor=#b1ddf0;strokeColor=#10739e;" vertex="1" parent="1">
          <mxGeometry x="1530" y="50" width="30" height="30" as="geometry" />
        </mxCell>
        <mxCell id="pppeQQV8sNg-4FHpJXWI-82" value="🔒" style="text;html=1;align=center;verticalAlign=middle;whiteSpace=wrap;rounded=1;fontSize=20;fillColor=#d5e8d4;strokeColor=#82b366;" vertex="1" parent="1">
          <mxGeometry x="1610" y="10" width="30" height="30" as="geometry" />
        </mxCell>
        <mxCell id="pppeQQV8sNg-4FHpJXWI-83" value="🔑" style="text;html=1;align=center;verticalAlign=middle;whiteSpace=wrap;rounded=1;fontSize=20;fillColor=#d5e8d4;strokeColor=#82b366;" vertex="1" parent="1">
          <mxGeometry x="1610" y="50" width="30" height="30" as="geometry" />
        </mxCell>
        <mxCell id="pppeQQV8sNg-4FHpJXWI-85" value="start" style="rounded=0;whiteSpace=wrap;html=1;fillColor=#b0e3e6;strokeColor=#0e8088;" vertex="1" parent="1">
          <mxGeometry x="1665" y="10" width="80" height="40" as="geometry" />
        </mxCell>
        <mxCell id="pppeQQV8sNg-4FHpJXWI-86" value="🔒" style="text;html=1;align=center;verticalAlign=middle;whiteSpace=wrap;rounded=1;fontSize=20;fillColor=#f5f5f5;strokeColor=#666666;fontColor=#333333;" vertex="1" parent="1">
          <mxGeometry x="1450" y="10" width="30" height="30" as="geometry" />
        </mxCell>
        <mxCell id="pppeQQV8sNg-4FHpJXWI-87" value="🔑" style="text;html=1;align=center;verticalAlign=middle;whiteSpace=wrap;rounded=1;fontSize=20;fillColor=#f5f5f5;fontColor=#333333;strokeColor=#666666;" vertex="1" parent="1">
          <mxGeometry x="1450" y="50" width="30" height="30" as="geometry" />
        </mxCell>
        <mxCell id="pppeQQV8sNg-4FHpJXWI-88" value="🚪&lt;div&gt;&lt;font style=&quot;font-size: 12px;&quot;&gt;exit&lt;/font&gt;&lt;/div&gt;" style="text;html=1;align=center;verticalAlign=middle;whiteSpace=wrap;rounded=0;fontSize=20;fillColor=#b0e3e6;strokeColor=#0e8088;glass=0;shadow=0;fontFamily=Helvetica;" vertex="1" parent="1">
          <mxGeometry x="1665" y="60" width="65" height="60" as="geometry" />
        </mxCell>
        <mxCell id="pppeQQV8sNg-4FHpJXWI-112" style="edgeStyle=orthogonalEdgeStyle;rounded=0;orthogonalLoop=1;jettySize=auto;html=1;" edge="1" parent="1" source="pppeQQV8sNg-4FHpJXWI-98" target="pppeQQV8sNg-4FHpJXWI-93">
          <mxGeometry relative="1" as="geometry" />
        </mxCell>
        <mxCell id="pppeQQV8sNg-4FHpJXWI-98" value="🔒" style="text;html=1;align=center;verticalAlign=middle;whiteSpace=wrap;rounded=1;fontSize=20;fillColor=#e1d5e7;strokeColor=#9673a6;" vertex="1" parent="1">
          <mxGeometry x="1665" y="345.5" width="30" height="30" as="geometry" />
        </mxCell>
        <mxCell id="pppeQQV8sNg-4FHpJXWI-99" value="1" style="text;html=1;align=center;verticalAlign=middle;whiteSpace=wrap;rounded=1;fontSize=20;fillColor=#f5f5f5;strokeColor=#666666;fontColor=#333333;" vertex="1" parent="1">
          <mxGeometry x="1450" y="90" width="30" height="30" as="geometry" />
        </mxCell>
        <mxCell id="pppeQQV8sNg-4FHpJXWI-100" value="2" style="text;html=1;align=center;verticalAlign=middle;whiteSpace=wrap;rounded=1;fontSize=20;fillColor=#f5f5f5;strokeColor=#666666;fontColor=#333333;" vertex="1" parent="1">
          <mxGeometry x="1490" y="90" width="30" height="30" as="geometry" />
        </mxCell>
        <mxCell id="pppeQQV8sNg-4FHpJXWI-101" value="3" style="text;html=1;align=center;verticalAlign=middle;whiteSpace=wrap;rounded=1;fontSize=20;fillColor=#f5f5f5;strokeColor=#666666;fontColor=#333333;" vertex="1" parent="1">
          <mxGeometry x="1530" y="90" width="30" height="30" as="geometry" />
        </mxCell>
        <mxCell id="pppeQQV8sNg-4FHpJXWI-102" value="4" style="text;html=1;align=center;verticalAlign=middle;whiteSpace=wrap;rounded=1;fontSize=20;fillColor=#f5f5f5;strokeColor=#666666;fontColor=#333333;" vertex="1" parent="1">
          <mxGeometry x="1570" y="90" width="30" height="30" as="geometry" />
        </mxCell>
        <mxCell id="pppeQQV8sNg-4FHpJXWI-103" value="5" style="text;html=1;align=center;verticalAlign=middle;whiteSpace=wrap;rounded=1;fontSize=20;fillColor=#f5f5f5;strokeColor=#666666;fontColor=#333333;" vertex="1" parent="1">
          <mxGeometry x="1610" y="90" width="30" height="30" as="geometry" />
        </mxCell>
        <mxCell id="pppeQQV8sNg-4FHpJXWI-107" style="edgeStyle=orthogonalEdgeStyle;rounded=0;orthogonalLoop=1;jettySize=auto;html=1;entryX=0;entryY=0.5;entryDx=0;entryDy=0;" edge="1" parent="1" source="pppeQQV8sNg-4FHpJXWI-104" target="pppeQQV8sNg-4FHpJXWI-89">
          <mxGeometry relative="1" as="geometry" />
        </mxCell>
        <mxCell id="pppeQQV8sNg-4FHpJXWI-104" value="🔒" style="text;html=1;align=center;verticalAlign=middle;whiteSpace=wrap;rounded=1;fontSize=20;fillColor=#b1ddf0;strokeColor=#10739e;" vertex="1" parent="1">
          <mxGeometry x="1830" y="345.5" width="30" height="30" as="geometry" />
        </mxCell>
        <mxCell id="pppeQQV8sNg-4FHpJXWI-111" style="edgeStyle=orthogonalEdgeStyle;rounded=0;orthogonalLoop=1;jettySize=auto;html=1;entryX=0.5;entryY=0;entryDx=0;entryDy=0;" edge="1" parent="1" source="pppeQQV8sNg-4FHpJXWI-105" target="pppeQQV8sNg-4FHpJXWI-92">
          <mxGeometry relative="1" as="geometry" />
        </mxCell>
        <mxCell id="pppeQQV8sNg-4FHpJXWI-105" value="🔒" style="text;html=1;align=center;verticalAlign=middle;whiteSpace=wrap;rounded=1;fontSize=20;fillColor=#fad9d5;strokeColor=#ae4132;" vertex="1" parent="1">
          <mxGeometry x="1745" y="435" width="30" height="30" as="geometry" />
        </mxCell>
        <mxCell id="pppeQQV8sNg-4FHpJXWI-113" value="1" style="text;html=1;align=center;verticalAlign=middle;whiteSpace=wrap;rounded=1;fontSize=20;fillColor=#f5f5f5;strokeColor=#666666;fontColor=#333333;" vertex="1" parent="1">
          <mxGeometry x="1585" y="345" width="30" height="30" as="geometry" />
        </mxCell>
        <mxCell id="pppeQQV8sNg-4FHpJXWI-114" value="2" style="text;html=1;align=center;verticalAlign=middle;whiteSpace=wrap;rounded=1;fontSize=20;fillColor=#f5f5f5;strokeColor=#666666;fontColor=#333333;" vertex="1" parent="1">
          <mxGeometry x="1905" y="345" width="30" height="30" as="geometry" />
        </mxCell>
        <mxCell id="pppeQQV8sNg-4FHpJXWI-115" value="3" style="text;html=1;align=center;verticalAlign=middle;whiteSpace=wrap;rounded=1;fontSize=20;fillColor=#f5f5f5;strokeColor=#666666;fontColor=#333333;" vertex="1" parent="1">
          <mxGeometry x="1745" y="515" width="30" height="30" as="geometry" />
        </mxCell>
        <mxCell id="pppeQQV8sNg-4FHpJXWI-117" value="1" style="text;html=1;align=center;verticalAlign=middle;whiteSpace=wrap;rounded=1;fontSize=20;fillColor=#f5f5f5;strokeColor=#666666;fontColor=#333333;flipV=1;flipH=1;" vertex="1" parent="1">
          <mxGeometry x="1860" y="435" width="30" height="30" as="geometry" />
        </mxCell>
        <mxCell id="pppeQQV8sNg-4FHpJXWI-118" value="2" style="text;html=1;align=center;verticalAlign=middle;whiteSpace=wrap;rounded=1;fontSize=20;fillColor=#f5f5f5;strokeColor=#666666;fontColor=#333333;flipV=1;flipH=1;" vertex="1" parent="1">
          <mxGeometry x="1890" y="435" width="30" height="30" as="geometry" />
        </mxCell>
        <mxCell id="pppeQQV8sNg-4FHpJXWI-123" style="edgeStyle=orthogonalEdgeStyle;rounded=0;orthogonalLoop=1;jettySize=auto;html=1;entryX=0;entryY=0.5;entryDx=0;entryDy=0;" edge="1" parent="1" source="pppeQQV8sNg-4FHpJXWI-119" target="pppeQQV8sNg-4FHpJXWI-121">
          <mxGeometry relative="1" as="geometry" />
        </mxCell>
        <mxCell id="pppeQQV8sNg-4FHpJXWI-119" value="3" style="text;html=1;align=center;verticalAlign=middle;whiteSpace=wrap;rounded=1;fontSize=20;fillColor=#f5f5f5;strokeColor=#666666;fontColor=#333333;" vertex="1" parent="1">
          <mxGeometry x="1920" y="434.5" width="30" height="30" as="geometry" />
        </mxCell>
        <mxCell id="pppeQQV8sNg-4FHpJXWI-120" value="🔒" style="text;html=1;align=center;verticalAlign=middle;whiteSpace=wrap;rounded=1;fontSize=20;fillColor=#f5f5f5;strokeColor=#666666;fontColor=#333333;" vertex="1" parent="1">
          <mxGeometry x="1830" y="435" width="30" height="30" as="geometry" />
        </mxCell>
        <mxCell id="pppeQQV8sNg-4FHpJXWI-121" value="" style="rounded=0;whiteSpace=wrap;html=1;" vertex="1" parent="1">
          <mxGeometry x="1980" y="389.5" width="120" height="120" as="geometry" />
        </mxCell>
        <mxCell id="pppeQQV8sNg-4FHpJXWI-122" value="🚪&lt;div&gt;&lt;font style=&quot;font-size: 12px;&quot;&gt;exit&lt;/font&gt;&lt;/div&gt;" style="text;html=1;align=center;verticalAlign=middle;whiteSpace=wrap;rounded=0;fontSize=20;fillColor=#b0e3e6;strokeColor=#0e8088;glass=0;shadow=0;fontFamily=Helvetica;" vertex="1" parent="1">
          <mxGeometry x="2007.5" y="420" width="65" height="60" as="geometry" />
        </mxCell>
        <mxCell id="pppeQQV8sNg-4FHpJXWI-149" value="" style="rounded=0;whiteSpace=wrap;html=1;" vertex="1" parent="1">
          <mxGeometry x="1670" y="640" width="120" height="120" as="geometry" />
        </mxCell>
        <mxCell id="pppeQQV8sNg-4FHpJXWI-150" value="" style="rounded=0;whiteSpace=wrap;html=1;" vertex="1" parent="1">
          <mxGeometry x="1950" y="640" width="160" height="160" as="geometry" />
        </mxCell>
        <mxCell id="pppeQQV8sNg-4FHpJXWI-151" value="" style="rounded=0;whiteSpace=wrap;html=1;" vertex="1" parent="1">
          <mxGeometry x="1830" y="660" width="80" height="80" as="geometry" />
        </mxCell>
        <mxCell id="pppeQQV8sNg-4FHpJXWI-152" value="🔒" style="text;html=1;align=center;verticalAlign=middle;whiteSpace=wrap;rounded=1;fontSize=20;fillColor=#fad9d5;strokeColor=#ae4132;" vertex="1" parent="1">
          <mxGeometry x="1400" y="650" width="40" height="40" as="geometry" />
        </mxCell>
        <mxCell id="pppeQQV8sNg-4FHpJXWI-153" value="🔑" style="text;html=1;align=center;verticalAlign=middle;whiteSpace=wrap;rounded=1;fontSize=20;fillColor=#e1d5e7;strokeColor=#9673a6;" vertex="1" parent="1">
          <mxGeometry x="1480" y="690" width="40" height="40" as="geometry" />
        </mxCell>
        <mxCell id="pppeQQV8sNg-4FHpJXWI-154" value="🔒" style="text;html=1;align=center;verticalAlign=middle;whiteSpace=wrap;rounded=1;fontSize=20;fillColor=#e1d5e7;strokeColor=#9673a6;" vertex="1" parent="1">
          <mxGeometry x="1480" y="650" width="40" height="40" as="geometry" />
        </mxCell>
        <mxCell id="pppeQQV8sNg-4FHpJXWI-155" value="🔑" style="text;html=1;align=center;verticalAlign=middle;whiteSpace=wrap;rounded=1;fontSize=20;fillColor=#fad9d5;strokeColor=#ae4132;" vertex="1" parent="1">
          <mxGeometry x="1400" y="690" width="40" height="40" as="geometry" />
        </mxCell>
        <mxCell id="pppeQQV8sNg-4FHpJXWI-156" value="🔒" style="text;html=1;align=center;verticalAlign=middle;whiteSpace=wrap;rounded=1;fontSize=20;fillColor=#b1ddf0;strokeColor=#10739e;" vertex="1" parent="1">
          <mxGeometry x="1440" y="650" width="40" height="40" as="geometry" />
        </mxCell>
        <mxCell id="pppeQQV8sNg-4FHpJXWI-157" value="🔑" style="text;html=1;align=center;verticalAlign=middle;whiteSpace=wrap;rounded=1;fontSize=20;fillColor=#b1ddf0;strokeColor=#10739e;" vertex="1" parent="1">
          <mxGeometry x="1440" y="690" width="40" height="40" as="geometry" />
        </mxCell>
        <mxCell id="pppeQQV8sNg-4FHpJXWI-158" value="🔒" style="text;html=1;align=center;verticalAlign=middle;whiteSpace=wrap;rounded=1;fontSize=20;fillColor=#d5e8d4;strokeColor=#82b366;" vertex="1" parent="1">
          <mxGeometry x="1520" y="650" width="40" height="40" as="geometry" />
        </mxCell>
        <mxCell id="pppeQQV8sNg-4FHpJXWI-159" value="🔑" style="text;html=1;align=center;verticalAlign=middle;whiteSpace=wrap;rounded=1;fontSize=20;fillColor=#d5e8d4;strokeColor=#82b366;" vertex="1" parent="1">
          <mxGeometry x="1520" y="690" width="40" height="40" as="geometry" />
        </mxCell>
        <mxCell id="pppeQQV8sNg-4FHpJXWI-160" value="start" style="rounded=0;whiteSpace=wrap;html=1;fillColor=#b0e3e6;strokeColor=#0e8088;" vertex="1" parent="1">
          <mxGeometry x="1575" y="650" width="80" height="40" as="geometry" />
        </mxCell>
        <mxCell id="pppeQQV8sNg-4FHpJXWI-161" value="🔒" style="text;html=1;align=center;verticalAlign=middle;whiteSpace=wrap;rounded=1;fontSize=20;fillColor=#f5f5f5;strokeColor=#666666;fontColor=#333333;" vertex="1" parent="1">
          <mxGeometry x="1360" y="650" width="40" height="40" as="geometry" />
        </mxCell>
        <mxCell id="pppeQQV8sNg-4FHpJXWI-162" value="🔑" style="text;html=1;align=center;verticalAlign=middle;whiteSpace=wrap;rounded=1;fontSize=20;fillColor=#f5f5f5;fontColor=#333333;strokeColor=#666666;" vertex="1" parent="1">
          <mxGeometry x="1360" y="690" width="40" height="40" as="geometry" />
        </mxCell>
        <mxCell id="pppeQQV8sNg-4FHpJXWI-163" value="🚪&lt;div&gt;&lt;font style=&quot;font-size: 12px;&quot;&gt;exit&lt;/font&gt;&lt;/div&gt;" style="text;html=1;align=center;verticalAlign=middle;whiteSpace=wrap;rounded=0;fontSize=20;fillColor=#b0e3e6;strokeColor=#0e8088;glass=0;shadow=0;fontFamily=Helvetica;" vertex="1" parent="1">
          <mxGeometry x="1575" y="700" width="65" height="60" as="geometry" />
        </mxCell>
        <mxCell id="pppeQQV8sNg-4FHpJXWI-164" value="1" style="text;html=1;align=center;verticalAlign=middle;whiteSpace=wrap;rounded=1;fontSize=20;fillColor=#f5f5f5;strokeColor=#666666;fontColor=#333333;" vertex="1" parent="1">
          <mxGeometry x="1360" y="810" width="40" height="40" as="geometry" />
        </mxCell>
        <mxCell id="pppeQQV8sNg-4FHpJXWI-165" value="2" style="text;html=1;align=center;verticalAlign=middle;whiteSpace=wrap;rounded=1;fontSize=20;fillColor=#f5f5f5;strokeColor=#666666;fontColor=#333333;" vertex="1" parent="1">
          <mxGeometry x="1400" y="810" width="40" height="40" as="geometry" />
        </mxCell>
        <mxCell id="pppeQQV8sNg-4FHpJXWI-166" value="3" style="text;html=1;align=center;verticalAlign=middle;whiteSpace=wrap;rounded=1;fontSize=20;fillColor=#f5f5f5;strokeColor=#666666;fontColor=#333333;" vertex="1" parent="1">
          <mxGeometry x="1440" y="810" width="40" height="40" as="geometry" />
        </mxCell>
        <mxCell id="pppeQQV8sNg-4FHpJXWI-167" value="4" style="text;html=1;align=center;verticalAlign=middle;whiteSpace=wrap;rounded=1;fontSize=20;fillColor=#f5f5f5;strokeColor=#666666;fontColor=#333333;" vertex="1" parent="1">
          <mxGeometry x="1480" y="810" width="40" height="40" as="geometry" />
        </mxCell>
        <mxCell id="pppeQQV8sNg-4FHpJXWI-168" value="5" style="text;html=1;align=center;verticalAlign=middle;whiteSpace=wrap;rounded=1;fontSize=20;fillColor=#f5f5f5;strokeColor=#666666;fontColor=#333333;" vertex="1" parent="1">
          <mxGeometry x="1520" y="810" width="40" height="40" as="geometry" />
        </mxCell>
        <mxCell id="pppeQQV8sNg-4FHpJXWI-179" style="edgeStyle=orthogonalEdgeStyle;rounded=0;orthogonalLoop=1;jettySize=auto;html=1;exitX=0.25;exitY=0;exitDx=0;exitDy=0;entryX=0.5;entryY=1;entryDx=0;entryDy=0;" edge="1" parent="1" source="pppeQQV8sNg-4FHpJXWI-169" target="pppeQQV8sNg-4FHpJXWI-178">
          <mxGeometry relative="1" as="geometry" />
        </mxCell>
        <mxCell id="pppeQQV8sNg-4FHpJXWI-182" style="edgeStyle=orthogonalEdgeStyle;rounded=0;orthogonalLoop=1;jettySize=auto;html=1;exitX=0.75;exitY=0;exitDx=0;exitDy=0;entryX=0.5;entryY=1;entryDx=0;entryDy=0;" edge="1" parent="1" source="pppeQQV8sNg-4FHpJXWI-169" target="pppeQQV8sNg-4FHpJXWI-180">
          <mxGeometry relative="1" as="geometry" />
        </mxCell>
        <mxCell id="pppeQQV8sNg-4FHpJXWI-233" style="edgeStyle=orthogonalEdgeStyle;rounded=0;orthogonalLoop=1;jettySize=auto;html=1;entryX=1;entryY=0.5;entryDx=0;entryDy=0;" edge="1" parent="1" source="pppeQQV8sNg-4FHpJXWI-169" target="pppeQQV8sNg-4FHpJXWI-195">
          <mxGeometry relative="1" as="geometry" />
        </mxCell>
        <mxCell id="pppeQQV8sNg-4FHpJXWI-169" value="" style="rounded=0;whiteSpace=wrap;html=1;" vertex="1" parent="1">
          <mxGeometry x="1600" y="1000" width="240" height="160" as="geometry" />
        </mxCell>
        <mxCell id="pppeQQV8sNg-4FHpJXWI-171" style="edgeStyle=orthogonalEdgeStyle;rounded=0;orthogonalLoop=1;jettySize=auto;html=1;entryX=0.5;entryY=1;entryDx=0;entryDy=0;" edge="1" parent="1" source="pppeQQV8sNg-4FHpJXWI-170" target="pppeQQV8sNg-4FHpJXWI-169">
          <mxGeometry relative="1" as="geometry" />
        </mxCell>
        <mxCell id="pppeQQV8sNg-4FHpJXWI-170" value="start" style="rounded=0;whiteSpace=wrap;html=1;fillColor=#b0e3e6;strokeColor=#0e8088;" vertex="1" parent="1">
          <mxGeometry x="1680" y="1200" width="80" height="40" as="geometry" />
        </mxCell>
        <mxCell id="pppeQQV8sNg-4FHpJXWI-172" value="🔒" style="text;html=1;align=center;verticalAlign=middle;whiteSpace=wrap;rounded=1;fontSize=20;fillColor=#fad9d5;strokeColor=#ae4132;" vertex="1" parent="1">
          <mxGeometry x="1760" y="980" width="40" height="40" as="geometry" />
        </mxCell>
        <mxCell id="pppeQQV8sNg-4FHpJXWI-193" value="" style="edgeStyle=orthogonalEdgeStyle;rounded=0;orthogonalLoop=1;jettySize=auto;html=1;" edge="1" parent="1" source="pppeQQV8sNg-4FHpJXWI-174" target="pppeQQV8sNg-4FHpJXWI-184">
          <mxGeometry relative="1" as="geometry" />
        </mxCell>
        <mxCell id="pppeQQV8sNg-4FHpJXWI-174" value="🔒" style="text;html=1;align=center;verticalAlign=middle;whiteSpace=wrap;rounded=1;fontSize=20;fillColor=#f5f5f5;strokeColor=#666666;fontColor=#333333;" vertex="1" parent="1">
          <mxGeometry x="1820" y="1060" width="40" height="40" as="geometry" />
        </mxCell>
        <mxCell id="pppeQQV8sNg-4FHpJXWI-178" value="" style="rounded=0;whiteSpace=wrap;html=1;" vertex="1" parent="1">
          <mxGeometry x="1620" y="880" width="80" height="80" as="geometry" />
        </mxCell>
        <mxCell id="pppeQQV8sNg-4FHpJXWI-177" value="🔑" style="text;html=1;align=center;verticalAlign=middle;whiteSpace=wrap;rounded=1;fontSize=20;fillColor=#f5f5f5;fontColor=#333333;strokeColor=#666666;" vertex="1" parent="1">
          <mxGeometry x="1640" y="900" width="40" height="40" as="geometry" />
        </mxCell>
        <mxCell id="pppeQQV8sNg-4FHpJXWI-180" value="" style="rounded=0;whiteSpace=wrap;html=1;" vertex="1" parent="1">
          <mxGeometry x="1740" y="880" width="80" height="80" as="geometry" />
        </mxCell>
        <mxCell id="pppeQQV8sNg-4FHpJXWI-181" value="🚪&lt;div&gt;&lt;font style=&quot;font-size: 12px;&quot;&gt;exit&lt;/font&gt;&lt;/div&gt;" style="text;html=1;align=center;verticalAlign=middle;whiteSpace=wrap;rounded=0;fontSize=20;fillColor=#b0e3e6;strokeColor=#0e8088;glass=0;shadow=0;fontFamily=Helvetica;" vertex="1" parent="1">
          <mxGeometry x="1747.5" y="890" width="65" height="60" as="geometry" />
        </mxCell>
        <mxCell id="pppeQQV8sNg-4FHpJXWI-184" value="" style="rounded=0;whiteSpace=wrap;html=1;" vertex="1" parent="1">
          <mxGeometry x="1880" y="1020" width="120" height="120" as="geometry" />
        </mxCell>
        <mxCell id="pppeQQV8sNg-4FHpJXWI-195" value="" style="rounded=0;whiteSpace=wrap;html=1;" vertex="1" parent="1">
          <mxGeometry x="1440" y="1020" width="120" height="120" as="geometry" />
        </mxCell>
        <mxCell id="pppeQQV8sNg-4FHpJXWI-203" value="🔑" style="text;html=1;align=center;verticalAlign=middle;whiteSpace=wrap;rounded=1;fontSize=20;fillColor=#fad9d5;strokeColor=#ae4132;" vertex="1" parent="1">
          <mxGeometry x="1480" y="1060" width="40" height="40" as="geometry" />
        </mxCell>
        <mxCell id="pppeQQV8sNg-4FHpJXWI-204" style="edgeStyle=orthogonalEdgeStyle;rounded=0;orthogonalLoop=1;jettySize=auto;html=1;exitX=0.25;exitY=0;exitDx=0;exitDy=0;entryX=0.5;entryY=1;entryDx=0;entryDy=0;" edge="1" parent="1" source="pppeQQV8sNg-4FHpJXWI-206" target="pppeQQV8sNg-4FHpJXWI-218">
          <mxGeometry relative="1" as="geometry" />
        </mxCell>
        <mxCell id="pppeQQV8sNg-4FHpJXWI-205" style="edgeStyle=orthogonalEdgeStyle;rounded=0;orthogonalLoop=1;jettySize=auto;html=1;exitX=0.75;exitY=0;exitDx=0;exitDy=0;entryX=0.5;entryY=1;entryDx=0;entryDy=0;" edge="1" parent="1" source="pppeQQV8sNg-4FHpJXWI-206" target="pppeQQV8sNg-4FHpJXWI-220">
          <mxGeometry relative="1" as="geometry" />
        </mxCell>
        <mxCell id="pppeQQV8sNg-4FHpJXWI-206" value="" style="rounded=0;whiteSpace=wrap;html=1;" vertex="1" parent="1">
          <mxGeometry x="830" y="1010" width="240" height="160" as="geometry" />
        </mxCell>
        <mxCell id="pppeQQV8sNg-4FHpJXWI-207" style="edgeStyle=orthogonalEdgeStyle;rounded=0;orthogonalLoop=1;jettySize=auto;html=1;entryX=0.5;entryY=1;entryDx=0;entryDy=0;" edge="1" parent="1" source="pppeQQV8sNg-4FHpJXWI-208" target="pppeQQV8sNg-4FHpJXWI-206">
          <mxGeometry relative="1" as="geometry" />
        </mxCell>
        <mxCell id="pppeQQV8sNg-4FHpJXWI-208" value="start" style="rounded=0;whiteSpace=wrap;html=1;fillColor=#b0e3e6;strokeColor=#0e8088;" vertex="1" parent="1">
          <mxGeometry x="910" y="1210" width="80" height="40" as="geometry" />
        </mxCell>
        <mxCell id="pppeQQV8sNg-4FHpJXWI-209" value="🔒" style="text;html=1;align=center;verticalAlign=middle;whiteSpace=wrap;rounded=1;fontSize=20;fillColor=#fad9d5;strokeColor=#ae4132;" vertex="1" parent="1">
          <mxGeometry x="995" y="1000" width="30" height="30" as="geometry" />
        </mxCell>
        <mxCell id="pppeQQV8sNg-4FHpJXWI-210" value="" style="edgeStyle=orthogonalEdgeStyle;rounded=0;orthogonalLoop=1;jettySize=auto;html=1;" edge="1" parent="1" source="pppeQQV8sNg-4FHpJXWI-211" target="pppeQQV8sNg-4FHpJXWI-225">
          <mxGeometry relative="1" as="geometry" />
        </mxCell>
        <mxCell id="pppeQQV8sNg-4FHpJXWI-211" value="🔒" style="text;html=1;align=center;verticalAlign=middle;whiteSpace=wrap;rounded=1;fontSize=20;fillColor=#f5f5f5;strokeColor=#666666;fontColor=#333333;" vertex="1" parent="1">
          <mxGeometry x="815" y="1110" width="30" height="30" as="geometry" />
        </mxCell>
        <mxCell id="pppeQQV8sNg-4FHpJXWI-212" value="" style="edgeStyle=orthogonalEdgeStyle;rounded=0;orthogonalLoop=1;jettySize=auto;html=1;" edge="1" parent="1" source="pppeQQV8sNg-4FHpJXWI-213" target="pppeQQV8sNg-4FHpJXWI-223">
          <mxGeometry relative="1" as="geometry" />
        </mxCell>
        <mxCell id="pppeQQV8sNg-4FHpJXWI-213" value="🔒" style="text;html=1;align=center;verticalAlign=middle;whiteSpace=wrap;rounded=1;fontSize=20;fillColor=#f5f5f5;strokeColor=#666666;fontColor=#333333;" vertex="1" parent="1">
          <mxGeometry x="1060" y="1110" width="30" height="30" as="geometry" />
        </mxCell>
        <mxCell id="pppeQQV8sNg-4FHpJXWI-214" value="" style="edgeStyle=orthogonalEdgeStyle;rounded=0;orthogonalLoop=1;jettySize=auto;html=1;" edge="1" parent="1" source="pppeQQV8sNg-4FHpJXWI-215" target="pppeQQV8sNg-4FHpJXWI-222">
          <mxGeometry relative="1" as="geometry" />
        </mxCell>
        <mxCell id="pppeQQV8sNg-4FHpJXWI-215" value="🔒" style="text;html=1;align=center;verticalAlign=middle;whiteSpace=wrap;rounded=1;fontSize=20;fillColor=#f5f5f5;strokeColor=#666666;fontColor=#333333;" vertex="1" parent="1">
          <mxGeometry x="1060" y="1040" width="30" height="30" as="geometry" />
        </mxCell>
        <mxCell id="pppeQQV8sNg-4FHpJXWI-216" value="" style="edgeStyle=orthogonalEdgeStyle;rounded=0;orthogonalLoop=1;jettySize=auto;html=1;" edge="1" parent="1" source="pppeQQV8sNg-4FHpJXWI-217" target="pppeQQV8sNg-4FHpJXWI-224">
          <mxGeometry relative="1" as="geometry" />
        </mxCell>
        <mxCell id="pppeQQV8sNg-4FHpJXWI-217" value="🔒" style="text;html=1;align=center;verticalAlign=middle;whiteSpace=wrap;rounded=1;fontSize=20;fillColor=#f5f5f5;strokeColor=#666666;fontColor=#333333;" vertex="1" parent="1">
          <mxGeometry x="815" y="1030" width="30" height="30" as="geometry" />
        </mxCell>
        <mxCell id="pppeQQV8sNg-4FHpJXWI-218" value="" style="rounded=0;whiteSpace=wrap;html=1;" vertex="1" parent="1">
          <mxGeometry x="850" y="890" width="80" height="80" as="geometry" />
        </mxCell>
        <mxCell id="pppeQQV8sNg-4FHpJXWI-219" value="🔑" style="text;html=1;align=center;verticalAlign=middle;whiteSpace=wrap;rounded=1;fontSize=20;fillColor=#f5f5f5;fontColor=#333333;strokeColor=#666666;" vertex="1" parent="1">
          <mxGeometry x="875" y="915" width="30" height="30" as="geometry" />
        </mxCell>
        <mxCell id="pppeQQV8sNg-4FHpJXWI-220" value="" style="rounded=0;whiteSpace=wrap;html=1;" vertex="1" parent="1">
          <mxGeometry x="970" y="890" width="80" height="80" as="geometry" />
        </mxCell>
        <mxCell id="pppeQQV8sNg-4FHpJXWI-221" value="🚪&lt;div&gt;&lt;font style=&quot;font-size: 12px;&quot;&gt;exit&lt;/font&gt;&lt;/div&gt;" style="text;html=1;align=center;verticalAlign=middle;whiteSpace=wrap;rounded=0;fontSize=20;fillColor=#b0e3e6;strokeColor=#0e8088;glass=0;shadow=0;fontFamily=Helvetica;" vertex="1" parent="1">
          <mxGeometry x="977.5" y="900" width="65" height="60" as="geometry" />
        </mxCell>
        <mxCell id="pppeQQV8sNg-4FHpJXWI-222" value="" style="rounded=0;whiteSpace=wrap;html=1;" vertex="1" parent="1">
          <mxGeometry x="1150" y="960" width="120" height="120" as="geometry" />
        </mxCell>
        <mxCell id="pppeQQV8sNg-4FHpJXWI-223" value="" style="rounded=0;whiteSpace=wrap;html=1;" vertex="1" parent="1">
          <mxGeometry x="1150" y="1100" width="120" height="120" as="geometry" />
        </mxCell>
        <mxCell id="pppeQQV8sNg-4FHpJXWI-224" value="" style="rounded=0;whiteSpace=wrap;html=1;" vertex="1" parent="1">
          <mxGeometry x="630" y="950" width="120" height="120" as="geometry" />
        </mxCell>
        <mxCell id="pppeQQV8sNg-4FHpJXWI-225" value="" style="rounded=0;whiteSpace=wrap;html=1;" vertex="1" parent="1">
          <mxGeometry x="630" y="1110" width="120" height="120" as="geometry" />
        </mxCell>
        <mxCell id="pppeQQV8sNg-4FHpJXWI-227" value="🔑" style="text;html=1;align=center;verticalAlign=middle;whiteSpace=wrap;rounded=1;fontSize=20;fillColor=#f5f5f5;fontColor=#333333;strokeColor=#666666;" vertex="1" parent="1">
          <mxGeometry x="1170" y="1000" width="40" height="40" as="geometry" />
        </mxCell>
        <mxCell id="pppeQQV8sNg-4FHpJXWI-229" value="🔑" style="text;html=1;align=center;verticalAlign=middle;whiteSpace=wrap;rounded=1;fontSize=20;fillColor=#fad9d5;strokeColor=#ae4132;" vertex="1" parent="1">
          <mxGeometry x="670" y="1160" width="30" height="30" as="geometry" />
        </mxCell>
        <mxCell id="pppeQQV8sNg-4FHpJXWI-230" value="🔒" style="text;html=1;align=center;verticalAlign=middle;whiteSpace=wrap;rounded=1;fontSize=20;fillColor=#b1ddf0;strokeColor=#10739e;" vertex="1" parent="1">
          <mxGeometry x="1580" y="1060" width="40" height="40" as="geometry" />
        </mxCell>
        <mxCell id="pppeQQV8sNg-4FHpJXWI-231" value="🔑" style="text;html=1;align=center;verticalAlign=middle;whiteSpace=wrap;rounded=1;fontSize=20;fillColor=#b1ddf0;strokeColor=#10739e;" vertex="1" parent="1">
          <mxGeometry x="1920" y="1060" width="40" height="40" as="geometry" />
        </mxCell>
        <mxCell id="pppeQQV8sNg-4FHpJXWI-234" value="💎" style="text;html=1;align=center;verticalAlign=middle;whiteSpace=wrap;rounded=1;fontSize=20;fillColor=#dae8fc;strokeColor=#6c8ebf;gradientColor=#7ea6e0;" vertex="1" parent="1">
          <mxGeometry x="1360" y="850" width="40" height="40" as="geometry" />
        </mxCell>
        <mxCell id="pppeQQV8sNg-4FHpJXWI-236" value="💎" style="text;html=1;align=center;verticalAlign=middle;whiteSpace=wrap;rounded=1;fontSize=20;fillColor=#f5f5f5;gradientColor=#b3b3b3;strokeColor=#666666;" vertex="1" parent="1">
          <mxGeometry x="1210" y="1000" width="40" height="40" as="geometry" />
        </mxCell>
        <mxCell id="pppeQQV8sNg-4FHpJXWI-238" value="🔑" style="text;html=1;align=center;verticalAlign=middle;whiteSpace=wrap;rounded=1;fontSize=20;fillColor=#f5f5f5;fontColor=#333333;strokeColor=#666666;" vertex="1" parent="1">
          <mxGeometry x="1170" y="1140" width="40" height="40" as="geometry" />
        </mxCell>
        <mxCell id="pppeQQV8sNg-4FHpJXWI-239" value="💎" style="text;html=1;align=center;verticalAlign=middle;whiteSpace=wrap;rounded=1;fontSize=20;fillColor=#f5f5f5;strokeColor=#666666;gradientColor=#b3b3b3;" vertex="1" parent="1">
          <mxGeometry x="1210" y="1140" width="40" height="40" as="geometry" />
        </mxCell>
        <mxCell id="pppeQQV8sNg-4FHpJXWI-240" value="🔑" style="text;html=1;align=center;verticalAlign=middle;whiteSpace=wrap;rounded=1;fontSize=20;fillColor=#f5f5f5;fontColor=#333333;strokeColor=#666666;" vertex="1" parent="1">
          <mxGeometry x="650" y="990" width="40" height="40" as="geometry" />
        </mxCell>
        <mxCell id="pppeQQV8sNg-4FHpJXWI-241" value="💎" style="text;html=1;align=center;verticalAlign=middle;whiteSpace=wrap;rounded=1;fontSize=20;fillColor=#f5f5f5;strokeColor=#666666;gradientColor=#b3b3b3;" vertex="1" parent="1">
          <mxGeometry x="690" y="990" width="40" height="40" as="geometry" />
        </mxCell>
        <mxCell id="pppeQQV8sNg-4FHpJXWI-260" style="edgeStyle=orthogonalEdgeStyle;rounded=0;orthogonalLoop=1;jettySize=auto;html=1;entryX=1;entryY=0.5;entryDx=0;entryDy=0;" edge="1" parent="1" source="pppeQQV8sNg-4FHpJXWI-245" target="pppeQQV8sNg-4FHpJXWI-251">
          <mxGeometry relative="1" as="geometry" />
        </mxCell>
        <mxCell id="pppeQQV8sNg-4FHpJXWI-245" value="" style="rounded=0;whiteSpace=wrap;html=1;" vertex="1" parent="1">
          <mxGeometry x="1320" y="1520" width="160" height="160" as="geometry" />
        </mxCell>
        <mxCell id="pppeQQV8sNg-4FHpJXWI-246" style="edgeStyle=orthogonalEdgeStyle;rounded=0;orthogonalLoop=1;jettySize=auto;html=1;entryX=0.5;entryY=1;entryDx=0;entryDy=0;" edge="1" parent="1" source="pppeQQV8sNg-4FHpJXWI-247" target="pppeQQV8sNg-4FHpJXWI-245">
          <mxGeometry relative="1" as="geometry" />
        </mxCell>
        <mxCell id="pppeQQV8sNg-4FHpJXWI-247" value="start" style="rounded=0;whiteSpace=wrap;html=1;fillColor=#b0e3e6;strokeColor=#0e8088;" vertex="1" parent="1">
          <mxGeometry x="1360" y="1720" width="80" height="40" as="geometry" />
        </mxCell>
        <mxCell id="pppeQQV8sNg-4FHpJXWI-262" style="edgeStyle=orthogonalEdgeStyle;rounded=0;orthogonalLoop=1;jettySize=auto;html=1;entryX=0.5;entryY=1;entryDx=0;entryDy=0;" edge="1" parent="1" source="pppeQQV8sNg-4FHpJXWI-248" target="pppeQQV8sNg-4FHpJXWI-253">
          <mxGeometry relative="1" as="geometry" />
        </mxCell>
        <mxCell id="pppeQQV8sNg-4FHpJXWI-248" value="🔒" style="text;html=1;align=center;verticalAlign=middle;whiteSpace=wrap;rounded=1;fontSize=20;fillColor=#fad9d5;strokeColor=#ae4132;" vertex="1" parent="1">
          <mxGeometry x="1380" y="1500" width="40" height="40" as="geometry" />
        </mxCell>
        <mxCell id="pppeQQV8sNg-4FHpJXWI-249" value="" style="edgeStyle=orthogonalEdgeStyle;rounded=0;orthogonalLoop=1;jettySize=auto;html=1;" edge="1" parent="1" source="pppeQQV8sNg-4FHpJXWI-250" target="pppeQQV8sNg-4FHpJXWI-255">
          <mxGeometry relative="1" as="geometry" />
        </mxCell>
        <mxCell id="pppeQQV8sNg-4FHpJXWI-250" value="🔒" style="text;html=1;align=center;verticalAlign=middle;whiteSpace=wrap;rounded=1;fontSize=20;fillColor=#f5f5f5;strokeColor=#666666;fontColor=#333333;" vertex="1" parent="1">
          <mxGeometry x="1460" y="1580" width="40" height="40" as="geometry" />
        </mxCell>
        <mxCell id="pppeQQV8sNg-4FHpJXWI-251" value="" style="rounded=0;whiteSpace=wrap;html=1;" vertex="1" parent="1">
          <mxGeometry x="1200" y="1560" width="80" height="80" as="geometry" />
        </mxCell>
        <mxCell id="pppeQQV8sNg-4FHpJXWI-252" value="🔑" style="text;html=1;align=center;verticalAlign=middle;whiteSpace=wrap;rounded=1;fontSize=20;fillColor=#f5f5f5;fontColor=#333333;strokeColor=#666666;" vertex="1" parent="1">
          <mxGeometry x="1220" y="1580" width="40" height="40" as="geometry" />
        </mxCell>
        <mxCell id="pppeQQV8sNg-4FHpJXWI-253" value="" style="rounded=0;whiteSpace=wrap;html=1;" vertex="1" parent="1">
          <mxGeometry x="1360" y="1400" width="80" height="80" as="geometry" />
        </mxCell>
        <mxCell id="pppeQQV8sNg-4FHpJXWI-254" value="🚪&lt;div&gt;&lt;font style=&quot;font-size: 12px;&quot;&gt;exit&lt;/font&gt;&lt;/div&gt;" style="text;html=1;align=center;verticalAlign=middle;whiteSpace=wrap;rounded=0;fontSize=20;fillColor=#b0e3e6;strokeColor=#0e8088;glass=0;shadow=0;fontFamily=Helvetica;" vertex="1" parent="1">
          <mxGeometry x="1367.5" y="1410" width="65" height="60" as="geometry" />
        </mxCell>
        <mxCell id="pppeQQV8sNg-4FHpJXWI-255" value="" style="rounded=0;whiteSpace=wrap;html=1;" vertex="1" parent="1">
          <mxGeometry x="1520" y="1540" width="120" height="120" as="geometry" />
        </mxCell>
        <mxCell id="pppeQQV8sNg-4FHpJXWI-261" value="🔑" style="text;html=1;align=center;verticalAlign=middle;whiteSpace=wrap;rounded=1;fontSize=20;fillColor=#fad9d5;strokeColor=#ae4132;" vertex="1" parent="1">
          <mxGeometry x="1560" y="1580" width="40" height="40" as="geometry" />
        </mxCell>
        <mxCell id="pppeQQV8sNg-4FHpJXWI-269" style="edgeStyle=orthogonalEdgeStyle;rounded=0;orthogonalLoop=1;jettySize=auto;html=1;entryX=0.5;entryY=1;entryDx=0;entryDy=0;" edge="1" parent="1" target="pppeQQV8sNg-4FHpJXWI-264">
          <mxGeometry relative="1" as="geometry">
            <mxPoint x="2159.9999999999995" y="1600" as="sourcePoint" />
          </mxGeometry>
        </mxCell>
        <mxCell id="pppeQQV8sNg-4FHpJXWI-270" style="edgeStyle=orthogonalEdgeStyle;rounded=0;orthogonalLoop=1;jettySize=auto;html=1;entryX=0.5;entryY=1;entryDx=0;entryDy=0;" edge="1" parent="1" target="pppeQQV8sNg-4FHpJXWI-265">
          <mxGeometry relative="1" as="geometry">
            <mxPoint x="2159.9999999999995" y="1480" as="sourcePoint" />
          </mxGeometry>
        </mxCell>
        <mxCell id="pppeQQV8sNg-4FHpJXWI-274" style="edgeStyle=orthogonalEdgeStyle;rounded=0;orthogonalLoop=1;jettySize=auto;html=1;entryX=1;entryY=0.5;entryDx=0;entryDy=0;" edge="1" parent="1" target="pppeQQV8sNg-4FHpJXWI-273">
          <mxGeometry relative="1" as="geometry">
            <mxPoint x="2119.9999999999995" y="1280" as="sourcePoint" />
          </mxGeometry>
        </mxCell>
        <mxCell id="pppeQQV8sNg-4FHpJXWI-276" style="edgeStyle=orthogonalEdgeStyle;rounded=0;orthogonalLoop=1;jettySize=auto;html=1;entryX=0;entryY=0.5;entryDx=0;entryDy=0;" edge="1" parent="1" target="pppeQQV8sNg-4FHpJXWI-275">
          <mxGeometry relative="1" as="geometry">
            <mxPoint x="2199.9999999999995" y="1280" as="sourcePoint" />
          </mxGeometry>
        </mxCell>
        <mxCell id="pppeQQV8sNg-4FHpJXWI-278" style="edgeStyle=orthogonalEdgeStyle;rounded=0;orthogonalLoop=1;jettySize=auto;html=1;entryX=1;entryY=0.5;entryDx=0;entryDy=0;" edge="1" parent="1" source="pppeQQV8sNg-4FHpJXWI-279" target="pppeQQV8sNg-4FHpJXWI-286">
          <mxGeometry relative="1" as="geometry" />
        </mxCell>
        <mxCell id="pppeQQV8sNg-4FHpJXWI-279" value="" style="rounded=0;whiteSpace=wrap;html=1;" vertex="1" parent="1">
          <mxGeometry x="960" y="1520" width="160" height="160" as="geometry" />
        </mxCell>
        <mxCell id="pppeQQV8sNg-4FHpJXWI-280" style="edgeStyle=orthogonalEdgeStyle;rounded=0;orthogonalLoop=1;jettySize=auto;html=1;entryX=0.5;entryY=1;entryDx=0;entryDy=0;" edge="1" parent="1" source="pppeQQV8sNg-4FHpJXWI-281" target="pppeQQV8sNg-4FHpJXWI-279">
          <mxGeometry relative="1" as="geometry" />
        </mxCell>
        <mxCell id="pppeQQV8sNg-4FHpJXWI-281" value="start" style="rounded=0;whiteSpace=wrap;html=1;fillColor=#b0e3e6;strokeColor=#0e8088;" vertex="1" parent="1">
          <mxGeometry x="1000" y="1720" width="80" height="40" as="geometry" />
        </mxCell>
        <mxCell id="pppeQQV8sNg-4FHpJXWI-282" style="edgeStyle=orthogonalEdgeStyle;rounded=0;orthogonalLoop=1;jettySize=auto;html=1;entryX=0.5;entryY=1;entryDx=0;entryDy=0;" edge="1" parent="1" target="pppeQQV8sNg-4FHpJXWI-288">
          <mxGeometry relative="1" as="geometry">
            <mxPoint x="1040" y="1500" as="sourcePoint" />
          </mxGeometry>
        </mxCell>
        <mxCell id="pppeQQV8sNg-4FHpJXWI-285" value="🔒" style="text;html=1;align=center;verticalAlign=middle;whiteSpace=wrap;rounded=1;fontSize=20;fillColor=#f5f5f5;strokeColor=#666666;fontColor=#333333;" vertex="1" parent="1">
          <mxGeometry x="1020" y="1500" width="40" height="40" as="geometry" />
        </mxCell>
        <mxCell id="pppeQQV8sNg-4FHpJXWI-286" value="" style="rounded=0;whiteSpace=wrap;html=1;" vertex="1" parent="1">
          <mxGeometry x="840" y="1560" width="80" height="80" as="geometry" />
        </mxCell>
        <mxCell id="pppeQQV8sNg-4FHpJXWI-287" value="🔑" style="text;html=1;align=center;verticalAlign=middle;whiteSpace=wrap;rounded=1;fontSize=20;fillColor=#f5f5f5;fontColor=#333333;strokeColor=#666666;" vertex="1" parent="1">
          <mxGeometry x="860" y="1580" width="40" height="40" as="geometry" />
        </mxCell>
        <mxCell id="pppeQQV8sNg-4FHpJXWI-288" value="" style="rounded=0;whiteSpace=wrap;html=1;" vertex="1" parent="1">
          <mxGeometry x="1000" y="1400" width="80" height="80" as="geometry" />
        </mxCell>
        <mxCell id="pppeQQV8sNg-4FHpJXWI-289" value="🚪&lt;div&gt;&lt;font style=&quot;font-size: 12px;&quot;&gt;exit&lt;/font&gt;&lt;/div&gt;" style="text;html=1;align=center;verticalAlign=middle;whiteSpace=wrap;rounded=0;fontSize=20;fillColor=#b0e3e6;strokeColor=#0e8088;glass=0;shadow=0;fontFamily=Helvetica;" vertex="1" parent="1">
          <mxGeometry x="1007.5" y="1410" width="65" height="60" as="geometry" />
        </mxCell>
        <mxCell id="pppeQQV8sNg-4FHpJXWI-293" value="" style="rounded=0;whiteSpace=wrap;html=1;" vertex="1" parent="1">
          <mxGeometry x="600" y="1520" width="160" height="160" as="geometry" />
        </mxCell>
        <mxCell id="pppeQQV8sNg-4FHpJXWI-294" style="edgeStyle=orthogonalEdgeStyle;rounded=0;orthogonalLoop=1;jettySize=auto;html=1;entryX=0.5;entryY=1;entryDx=0;entryDy=0;" edge="1" parent="1" source="pppeQQV8sNg-4FHpJXWI-295" target="pppeQQV8sNg-4FHpJXWI-293">
          <mxGeometry relative="1" as="geometry" />
        </mxCell>
        <mxCell id="pppeQQV8sNg-4FHpJXWI-295" value="start" style="rounded=0;whiteSpace=wrap;html=1;fillColor=#b0e3e6;strokeColor=#0e8088;" vertex="1" parent="1">
          <mxGeometry x="640" y="1720" width="80" height="40" as="geometry" />
        </mxCell>
        <mxCell id="pppeQQV8sNg-4FHpJXWI-296" style="edgeStyle=orthogonalEdgeStyle;rounded=0;orthogonalLoop=1;jettySize=auto;html=1;entryX=0.5;entryY=1;entryDx=0;entryDy=0;" edge="1" parent="1" target="pppeQQV8sNg-4FHpJXWI-300">
          <mxGeometry relative="1" as="geometry">
            <mxPoint x="680" y="1500" as="sourcePoint" />
          </mxGeometry>
        </mxCell>
        <mxCell id="pppeQQV8sNg-4FHpJXWI-297" value="🔒" style="text;html=1;align=center;verticalAlign=middle;whiteSpace=wrap;rounded=1;fontSize=20;fillColor=#f5f5f5;strokeColor=#666666;fontColor=#333333;" vertex="1" parent="1">
          <mxGeometry x="660" y="1500" width="40" height="40" as="geometry" />
        </mxCell>
        <mxCell id="pppeQQV8sNg-4FHpJXWI-299" value="🔑" style="text;html=1;align=center;verticalAlign=middle;whiteSpace=wrap;rounded=1;fontSize=20;fillColor=#f5f5f5;fontColor=#333333;strokeColor=#666666;" vertex="1" parent="1">
          <mxGeometry x="660" y="1580" width="40" height="40" as="geometry" />
        </mxCell>
        <mxCell id="pppeQQV8sNg-4FHpJXWI-300" value="" style="rounded=0;whiteSpace=wrap;html=1;" vertex="1" parent="1">
          <mxGeometry x="640" y="1400" width="80" height="80" as="geometry" />
        </mxCell>
        <mxCell id="pppeQQV8sNg-4FHpJXWI-301" value="🚪&lt;div&gt;&lt;font style=&quot;font-size: 12px;&quot;&gt;exit&lt;/font&gt;&lt;/div&gt;" style="text;html=1;align=center;verticalAlign=middle;whiteSpace=wrap;rounded=0;fontSize=20;fillColor=#b0e3e6;strokeColor=#0e8088;glass=0;shadow=0;fontFamily=Helvetica;" vertex="1" parent="1">
          <mxGeometry x="647.5" y="1410" width="65" height="60" as="geometry" />
        </mxCell>
        <mxCell id="pppeQQV8sNg-4FHpJXWI-302" style="edgeStyle=orthogonalEdgeStyle;rounded=0;orthogonalLoop=1;jettySize=auto;html=1;entryX=1;entryY=0.5;entryDx=0;entryDy=0;" edge="1" parent="1" source="pppeQQV8sNg-4FHpJXWI-303" target="pppeQQV8sNg-4FHpJXWI-310">
          <mxGeometry relative="1" as="geometry" />
        </mxCell>
        <mxCell id="pppeQQV8sNg-4FHpJXWI-334" style="edgeStyle=orthogonalEdgeStyle;rounded=0;orthogonalLoop=1;jettySize=auto;html=1;entryX=0.5;entryY=1;entryDx=0;entryDy=0;" edge="1" parent="1" source="pppeQQV8sNg-4FHpJXWI-303" target="pppeQQV8sNg-4FHpJXWI-312">
          <mxGeometry relative="1" as="geometry" />
        </mxCell>
        <mxCell id="pppeQQV8sNg-4FHpJXWI-303" value="" style="rounded=0;whiteSpace=wrap;html=1;" vertex="1" parent="1">
          <mxGeometry x="1860" y="1520" width="160" height="160" as="geometry" />
        </mxCell>
        <mxCell id="pppeQQV8sNg-4FHpJXWI-304" style="edgeStyle=orthogonalEdgeStyle;rounded=0;orthogonalLoop=1;jettySize=auto;html=1;entryX=0.5;entryY=1;entryDx=0;entryDy=0;" edge="1" parent="1" source="pppeQQV8sNg-4FHpJXWI-305" target="pppeQQV8sNg-4FHpJXWI-303">
          <mxGeometry relative="1" as="geometry" />
        </mxCell>
        <mxCell id="pppeQQV8sNg-4FHpJXWI-305" value="start" style="rounded=0;whiteSpace=wrap;html=1;fillColor=#b0e3e6;strokeColor=#0e8088;" vertex="1" parent="1">
          <mxGeometry x="1900" y="1720" width="80" height="40" as="geometry" />
        </mxCell>
        <mxCell id="pppeQQV8sNg-4FHpJXWI-307" value="🔒" style="text;html=1;align=center;verticalAlign=middle;whiteSpace=wrap;rounded=1;fontSize=20;fillColor=#fad9d5;strokeColor=#ae4132;" vertex="1" parent="1">
          <mxGeometry x="1900" y="1500" width="40" height="40" as="geometry" />
        </mxCell>
        <mxCell id="pppeQQV8sNg-4FHpJXWI-308" value="" style="edgeStyle=orthogonalEdgeStyle;rounded=0;orthogonalLoop=1;jettySize=auto;html=1;" edge="1" parent="1" source="pppeQQV8sNg-4FHpJXWI-309" target="pppeQQV8sNg-4FHpJXWI-314">
          <mxGeometry relative="1" as="geometry" />
        </mxCell>
        <mxCell id="pppeQQV8sNg-4FHpJXWI-309" value="🔒" style="text;html=1;align=center;verticalAlign=middle;whiteSpace=wrap;rounded=1;fontSize=20;fillColor=#f5f5f5;strokeColor=#666666;fontColor=#333333;" vertex="1" parent="1">
          <mxGeometry x="2000" y="1580" width="40" height="40" as="geometry" />
        </mxCell>
        <mxCell id="pppeQQV8sNg-4FHpJXWI-310" value="" style="rounded=0;whiteSpace=wrap;html=1;" vertex="1" parent="1">
          <mxGeometry x="1700" y="1540" width="120" height="120" as="geometry" />
        </mxCell>
        <mxCell id="pppeQQV8sNg-4FHpJXWI-311" value="🔑" style="text;html=1;align=center;verticalAlign=middle;whiteSpace=wrap;rounded=1;fontSize=20;fillColor=#f5f5f5;fontColor=#333333;strokeColor=#666666;" vertex="1" parent="1">
          <mxGeometry x="1760" y="1580" width="40" height="40" as="geometry" />
        </mxCell>
        <mxCell id="pppeQQV8sNg-4FHpJXWI-312" value="" style="rounded=0;whiteSpace=wrap;html=1;" vertex="1" parent="1">
          <mxGeometry x="1900" y="1400" width="80" height="80" as="geometry" />
        </mxCell>
        <mxCell id="pppeQQV8sNg-4FHpJXWI-313" value="🚪&lt;div&gt;&lt;font style=&quot;font-size: 12px;&quot;&gt;exit&lt;/font&gt;&lt;/div&gt;" style="text;html=1;align=center;verticalAlign=middle;whiteSpace=wrap;rounded=0;fontSize=20;fillColor=#b0e3e6;strokeColor=#0e8088;glass=0;shadow=0;fontFamily=Helvetica;" vertex="1" parent="1">
          <mxGeometry x="1907.5" y="1410" width="65" height="60" as="geometry" />
        </mxCell>
        <mxCell id="pppeQQV8sNg-4FHpJXWI-314" value="" style="rounded=0;whiteSpace=wrap;html=1;" vertex="1" parent="1">
          <mxGeometry x="2060" y="1540" width="120" height="120" as="geometry" />
        </mxCell>
        <mxCell id="pppeQQV8sNg-4FHpJXWI-315" value="🔑" style="text;html=1;align=center;verticalAlign=middle;whiteSpace=wrap;rounded=1;fontSize=20;fillColor=#fad9d5;strokeColor=#ae4132;" vertex="1" parent="1">
          <mxGeometry x="2100" y="1580" width="40" height="40" as="geometry" />
        </mxCell>
        <mxCell id="pppeQQV8sNg-4FHpJXWI-332" value="🔒" style="text;html=1;align=center;verticalAlign=middle;whiteSpace=wrap;rounded=1;fontSize=20;fillColor=#b1ddf0;strokeColor=#10739e;" vertex="1" parent="1">
          <mxGeometry x="1940" y="1500" width="40" height="40" as="geometry" />
        </mxCell>
        <mxCell id="pppeQQV8sNg-4FHpJXWI-333" value="🔑" style="text;html=1;align=center;verticalAlign=middle;whiteSpace=wrap;rounded=1;fontSize=20;fillColor=#b1ddf0;strokeColor=#10739e;" vertex="1" parent="1">
          <mxGeometry x="1710" y="1580" width="40" height="40" as="geometry" />
        </mxCell>
        <mxCell id="pppeQQV8sNg-4FHpJXWI-335" style="edgeStyle=orthogonalEdgeStyle;rounded=0;orthogonalLoop=1;jettySize=auto;html=1;entryX=1;entryY=0.5;entryDx=0;entryDy=0;" edge="1" parent="1" source="pppeQQV8sNg-4FHpJXWI-337" target="pppeQQV8sNg-4FHpJXWI-343">
          <mxGeometry relative="1" as="geometry" />
        </mxCell>
        <mxCell id="pppeQQV8sNg-4FHpJXWI-336" style="edgeStyle=orthogonalEdgeStyle;rounded=0;orthogonalLoop=1;jettySize=auto;html=1;entryX=0.5;entryY=1;entryDx=0;entryDy=0;" edge="1" parent="1" source="pppeQQV8sNg-4FHpJXWI-337" target="pppeQQV8sNg-4FHpJXWI-345">
          <mxGeometry relative="1" as="geometry" />
        </mxCell>
        <mxCell id="pppeQQV8sNg-4FHpJXWI-351" style="edgeStyle=orthogonalEdgeStyle;rounded=0;orthogonalLoop=1;jettySize=auto;html=1;entryX=0;entryY=0.5;entryDx=0;entryDy=0;" edge="1" parent="1" source="pppeQQV8sNg-4FHpJXWI-337" target="pppeQQV8sNg-4FHpJXWI-347">
          <mxGeometry relative="1" as="geometry" />
        </mxCell>
        <mxCell id="pppeQQV8sNg-4FHpJXWI-337" value="" style="rounded=0;whiteSpace=wrap;html=1;" vertex="1" parent="1">
          <mxGeometry x="1960" y="1980" width="160" height="160" as="geometry" />
        </mxCell>
        <mxCell id="pppeQQV8sNg-4FHpJXWI-338" style="edgeStyle=orthogonalEdgeStyle;rounded=0;orthogonalLoop=1;jettySize=auto;html=1;entryX=0.5;entryY=1;entryDx=0;entryDy=0;" edge="1" parent="1" source="pppeQQV8sNg-4FHpJXWI-339" target="pppeQQV8sNg-4FHpJXWI-337">
          <mxGeometry relative="1" as="geometry" />
        </mxCell>
        <mxCell id="pppeQQV8sNg-4FHpJXWI-339" value="start" style="rounded=0;whiteSpace=wrap;html=1;fillColor=#b0e3e6;strokeColor=#0e8088;" vertex="1" parent="1">
          <mxGeometry x="2000" y="2180" width="80" height="40" as="geometry" />
        </mxCell>
        <mxCell id="pppeQQV8sNg-4FHpJXWI-343" value="" style="rounded=0;whiteSpace=wrap;html=1;" vertex="1" parent="1">
          <mxGeometry x="1800" y="2000" width="120" height="120" as="geometry" />
        </mxCell>
        <mxCell id="pppeQQV8sNg-4FHpJXWI-345" value="" style="rounded=0;whiteSpace=wrap;html=1;" vertex="1" parent="1">
          <mxGeometry x="2000" y="1840" width="80" height="80" as="geometry" />
        </mxCell>
        <mxCell id="pppeQQV8sNg-4FHpJXWI-347" value="" style="rounded=0;whiteSpace=wrap;html=1;" vertex="1" parent="1">
          <mxGeometry x="2160" y="2000" width="120" height="120" as="geometry" />
        </mxCell>
        <mxCell id="pppeQQV8sNg-4FHpJXWI-348" value="🔑" style="text;html=1;align=center;verticalAlign=middle;whiteSpace=wrap;rounded=1;fontSize=20;fillColor=#fad9d5;strokeColor=#ae4132;" vertex="1" parent="1">
          <mxGeometry x="2200" y="2040" width="40" height="40" as="geometry" />
        </mxCell>
        <mxCell id="pppeQQV8sNg-4FHpJXWI-350" value="🔑" style="text;html=1;align=center;verticalAlign=middle;whiteSpace=wrap;rounded=1;fontSize=20;fillColor=#b1ddf0;strokeColor=#10739e;" vertex="1" parent="1">
          <mxGeometry x="1840" y="2040" width="40" height="40" as="geometry" />
        </mxCell>
        <mxCell id="pppeQQV8sNg-4FHpJXWI-366" style="edgeStyle=orthogonalEdgeStyle;rounded=0;orthogonalLoop=1;jettySize=auto;html=1;entryX=1;entryY=0.5;entryDx=0;entryDy=0;" edge="1" parent="1" source="pppeQQV8sNg-4FHpJXWI-369" target="pppeQQV8sNg-4FHpJXWI-373">
          <mxGeometry relative="1" as="geometry" />
        </mxCell>
        <mxCell id="pppeQQV8sNg-4FHpJXWI-367" style="edgeStyle=orthogonalEdgeStyle;rounded=0;orthogonalLoop=1;jettySize=auto;html=1;entryX=0.5;entryY=1;entryDx=0;entryDy=0;" edge="1" parent="1" source="pppeQQV8sNg-4FHpJXWI-369" target="pppeQQV8sNg-4FHpJXWI-374">
          <mxGeometry relative="1" as="geometry" />
        </mxCell>
        <mxCell id="pppeQQV8sNg-4FHpJXWI-368" style="edgeStyle=orthogonalEdgeStyle;rounded=0;orthogonalLoop=1;jettySize=auto;html=1;entryX=0;entryY=0.5;entryDx=0;entryDy=0;" edge="1" parent="1" source="pppeQQV8sNg-4FHpJXWI-369" target="pppeQQV8sNg-4FHpJXWI-376">
          <mxGeometry relative="1" as="geometry" />
        </mxCell>
        <mxCell id="pppeQQV8sNg-4FHpJXWI-369" value="" style="rounded=0;whiteSpace=wrap;html=1;" vertex="1" parent="1">
          <mxGeometry x="1300" y="1960" width="200" height="160" as="geometry" />
        </mxCell>
        <mxCell id="pppeQQV8sNg-4FHpJXWI-370" style="edgeStyle=orthogonalEdgeStyle;rounded=0;orthogonalLoop=1;jettySize=auto;html=1;entryX=0.5;entryY=1;entryDx=0;entryDy=0;" edge="1" parent="1" source="pppeQQV8sNg-4FHpJXWI-371" target="pppeQQV8sNg-4FHpJXWI-369">
          <mxGeometry relative="1" as="geometry" />
        </mxCell>
        <mxCell id="pppeQQV8sNg-4FHpJXWI-371" value="start" style="rounded=0;whiteSpace=wrap;html=1;fillColor=#b0e3e6;strokeColor=#0e8088;" vertex="1" parent="1">
          <mxGeometry x="1360" y="2160" width="80" height="40" as="geometry" />
        </mxCell>
        <mxCell id="pppeQQV8sNg-4FHpJXWI-373" value="" style="rounded=0;whiteSpace=wrap;html=1;" vertex="1" parent="1">
          <mxGeometry x="1120" y="1980" width="120" height="120" as="geometry" />
        </mxCell>
        <mxCell id="pppeQQV8sNg-4FHpJXWI-374" value="" style="rounded=0;whiteSpace=wrap;html=1;" vertex="1" parent="1">
          <mxGeometry x="1360" y="1840" width="80" height="80" as="geometry" />
        </mxCell>
        <mxCell id="pppeQQV8sNg-4FHpJXWI-376" value="" style="rounded=0;whiteSpace=wrap;html=1;" vertex="1" parent="1">
          <mxGeometry x="1560" y="1980" width="120" height="120" as="geometry" />
        </mxCell>
        <mxCell id="pppeQQV8sNg-4FHpJXWI-377" value="🔑" style="text;html=1;align=center;verticalAlign=middle;whiteSpace=wrap;rounded=1;fontSize=20;fillColor=#fad9d5;strokeColor=#ae4132;" vertex="1" parent="1">
          <mxGeometry x="1600" y="2020" width="40" height="40" as="geometry" />
        </mxCell>
        <mxCell id="pppeQQV8sNg-4FHpJXWI-379" value="🔑" style="text;html=1;align=center;verticalAlign=middle;whiteSpace=wrap;rounded=1;fontSize=20;fillColor=#b1ddf0;strokeColor=#10739e;" vertex="1" parent="1">
          <mxGeometry x="1160" y="2020" width="40" height="40" as="geometry" />
        </mxCell>
        <mxCell id="pppeQQV8sNg-4FHpJXWI-381" value="🔑" style="text;html=1;align=center;verticalAlign=middle;whiteSpace=wrap;rounded=1;fontSize=20;fillColor=#d5e8d4;strokeColor=#82b366;" vertex="1" parent="1">
          <mxGeometry x="1380" y="2030" width="40" height="40" as="geometry" />
        </mxCell>
        <mxCell id="pppeQQV8sNg-4FHpJXWI-384" value="" style="group" vertex="1" connectable="0" parent="1">
          <mxGeometry x="1330" y="1930" width="140" height="60" as="geometry" />
        </mxCell>
        <mxCell id="pppeQQV8sNg-4FHpJXWI-382" value="" style="rounded=1;whiteSpace=wrap;html=1;dashed=1;dashPattern=1 4;" vertex="1" parent="pppeQQV8sNg-4FHpJXWI-384">
          <mxGeometry width="140" height="60" as="geometry" />
        </mxCell>
        <mxCell id="pppeQQV8sNg-4FHpJXWI-372" value="🔒" style="text;html=1;align=center;verticalAlign=middle;whiteSpace=wrap;rounded=1;fontSize=20;fillColor=#fad9d5;strokeColor=#ae4132;" vertex="1" parent="pppeQQV8sNg-4FHpJXWI-384">
          <mxGeometry x="10" y="10" width="40" height="40" as="geometry" />
        </mxCell>
        <mxCell id="pppeQQV8sNg-4FHpJXWI-378" value="🔒" style="text;html=1;align=center;verticalAlign=middle;whiteSpace=wrap;rounded=1;fontSize=20;fillColor=#b1ddf0;strokeColor=#10739e;" vertex="1" parent="pppeQQV8sNg-4FHpJXWI-384">
          <mxGeometry x="50" y="10" width="40" height="40" as="geometry" />
        </mxCell>
        <mxCell id="pppeQQV8sNg-4FHpJXWI-380" value="🔒" style="text;html=1;align=center;verticalAlign=middle;whiteSpace=wrap;rounded=1;fontSize=20;fillColor=#d5e8d4;strokeColor=#82b366;" vertex="1" parent="pppeQQV8sNg-4FHpJXWI-384">
          <mxGeometry x="90" y="10" width="40" height="40" as="geometry" />
        </mxCell>
        <mxCell id="pppeQQV8sNg-4FHpJXWI-391" value="" style="group" vertex="1" connectable="0" parent="1">
          <mxGeometry x="1990" y="1950" width="100" height="60" as="geometry" />
        </mxCell>
        <mxCell id="pppeQQV8sNg-4FHpJXWI-386" value="" style="rounded=1;whiteSpace=wrap;html=1;dashed=1;dashPattern=1 4;" vertex="1" parent="pppeQQV8sNg-4FHpJXWI-391">
          <mxGeometry width="100" height="60" as="geometry" />
        </mxCell>
        <mxCell id="pppeQQV8sNg-4FHpJXWI-387" value="🔒" style="text;html=1;align=center;verticalAlign=middle;whiteSpace=wrap;rounded=1;fontSize=20;fillColor=#fad9d5;strokeColor=#ae4132;" vertex="1" parent="pppeQQV8sNg-4FHpJXWI-391">
          <mxGeometry x="10" y="10" width="40" height="40" as="geometry" />
        </mxCell>
        <mxCell id="pppeQQV8sNg-4FHpJXWI-388" value="🔒" style="text;html=1;align=center;verticalAlign=middle;whiteSpace=wrap;rounded=1;fontSize=20;fillColor=#b1ddf0;strokeColor=#10739e;" vertex="1" parent="pppeQQV8sNg-4FHpJXWI-391">
          <mxGeometry x="50" y="10" width="40" height="40" as="geometry" />
        </mxCell>
        <mxCell id="pppeQQV8sNg-4FHpJXWI-393" style="edgeStyle=orthogonalEdgeStyle;rounded=0;orthogonalLoop=1;jettySize=auto;html=1;entryX=0.5;entryY=1;entryDx=0;entryDy=0;" edge="1" parent="1" source="pppeQQV8sNg-4FHpJXWI-395" target="pppeQQV8sNg-4FHpJXWI-399">
          <mxGeometry relative="1" as="geometry" />
        </mxCell>
        <mxCell id="pppeQQV8sNg-4FHpJXWI-412" style="edgeStyle=orthogonalEdgeStyle;rounded=0;orthogonalLoop=1;jettySize=auto;html=1;exitX=1;exitY=0.25;exitDx=0;exitDy=0;entryX=0;entryY=0.5;entryDx=0;entryDy=0;" edge="1" parent="1" source="pppeQQV8sNg-4FHpJXWI-395" target="pppeQQV8sNg-4FHpJXWI-401">
          <mxGeometry relative="1" as="geometry" />
        </mxCell>
        <mxCell id="pppeQQV8sNg-4FHpJXWI-413" style="edgeStyle=orthogonalEdgeStyle;rounded=0;orthogonalLoop=1;jettySize=auto;html=1;exitX=1;exitY=0.5;exitDx=0;exitDy=0;" edge="1" parent="1" source="pppeQQV8sNg-4FHpJXWI-395" target="pppeQQV8sNg-4FHpJXWI-410">
          <mxGeometry relative="1" as="geometry" />
        </mxCell>
        <mxCell id="pppeQQV8sNg-4FHpJXWI-416" style="edgeStyle=orthogonalEdgeStyle;rounded=0;orthogonalLoop=1;jettySize=auto;html=1;exitX=1;exitY=0.75;exitDx=0;exitDy=0;entryX=0;entryY=0.5;entryDx=0;entryDy=0;" edge="1" parent="1" source="pppeQQV8sNg-4FHpJXWI-395" target="pppeQQV8sNg-4FHpJXWI-414">
          <mxGeometry relative="1" as="geometry" />
        </mxCell>
        <mxCell id="pppeQQV8sNg-4FHpJXWI-395" value="" style="rounded=0;whiteSpace=wrap;html=1;" vertex="1" parent="1">
          <mxGeometry x="660" y="1960" width="160" height="280" as="geometry" />
        </mxCell>
        <mxCell id="pppeQQV8sNg-4FHpJXWI-396" style="edgeStyle=orthogonalEdgeStyle;rounded=0;orthogonalLoop=1;jettySize=auto;html=1;entryX=0.5;entryY=1;entryDx=0;entryDy=0;" edge="1" parent="1" source="pppeQQV8sNg-4FHpJXWI-397" target="pppeQQV8sNg-4FHpJXWI-395">
          <mxGeometry relative="1" as="geometry" />
        </mxCell>
        <mxCell id="pppeQQV8sNg-4FHpJXWI-397" value="start" style="rounded=0;whiteSpace=wrap;html=1;fillColor=#b0e3e6;strokeColor=#0e8088;" vertex="1" parent="1">
          <mxGeometry x="700" y="2280" width="80" height="40" as="geometry" />
        </mxCell>
        <mxCell id="pppeQQV8sNg-4FHpJXWI-399" value="" style="rounded=0;whiteSpace=wrap;html=1;" vertex="1" parent="1">
          <mxGeometry x="700" y="1830" width="80" height="80" as="geometry" />
        </mxCell>
        <mxCell id="pppeQQV8sNg-4FHpJXWI-401" value="" style="rounded=0;whiteSpace=wrap;html=1;" vertex="1" parent="1">
          <mxGeometry x="880" y="1890" width="120" height="120" as="geometry" />
        </mxCell>
        <mxCell id="pppeQQV8sNg-4FHpJXWI-402" value="🔑" style="text;html=1;align=center;verticalAlign=middle;whiteSpace=wrap;rounded=1;fontSize=20;fillColor=#fad9d5;strokeColor=#ae4132;" vertex="1" parent="1">
          <mxGeometry x="920" y="1930" width="40" height="40" as="geometry" />
        </mxCell>
        <mxCell id="pppeQQV8sNg-4FHpJXWI-405" value="" style="group" vertex="1" connectable="0" parent="1">
          <mxGeometry x="670" y="1940" width="140" height="60" as="geometry" />
        </mxCell>
        <mxCell id="pppeQQV8sNg-4FHpJXWI-406" value="" style="rounded=1;whiteSpace=wrap;html=1;dashed=1;dashPattern=1 4;" vertex="1" parent="pppeQQV8sNg-4FHpJXWI-405">
          <mxGeometry width="140" height="60" as="geometry" />
        </mxCell>
        <mxCell id="pppeQQV8sNg-4FHpJXWI-407" value="🔒" style="text;html=1;align=center;verticalAlign=middle;whiteSpace=wrap;rounded=1;fontSize=20;fillColor=#fad9d5;strokeColor=#ae4132;" vertex="1" parent="pppeQQV8sNg-4FHpJXWI-405">
          <mxGeometry x="10" y="10" width="40" height="40" as="geometry" />
        </mxCell>
        <mxCell id="pppeQQV8sNg-4FHpJXWI-408" value="🔒" style="text;html=1;align=center;verticalAlign=middle;whiteSpace=wrap;rounded=1;fontSize=20;fillColor=#b1ddf0;strokeColor=#10739e;" vertex="1" parent="pppeQQV8sNg-4FHpJXWI-405">
          <mxGeometry x="50" y="10" width="40" height="40" as="geometry" />
        </mxCell>
        <mxCell id="pppeQQV8sNg-4FHpJXWI-409" value="🔒" style="text;html=1;align=center;verticalAlign=middle;whiteSpace=wrap;rounded=1;fontSize=20;fillColor=#d5e8d4;strokeColor=#82b366;" vertex="1" parent="pppeQQV8sNg-4FHpJXWI-405">
          <mxGeometry x="90" y="10" width="40" height="40" as="geometry" />
        </mxCell>
        <mxCell id="pppeQQV8sNg-4FHpJXWI-410" value="" style="rounded=0;whiteSpace=wrap;html=1;" vertex="1" parent="1">
          <mxGeometry x="880" y="2040" width="120" height="120" as="geometry" />
        </mxCell>
        <mxCell id="pppeQQV8sNg-4FHpJXWI-411" value="🔑" style="text;html=1;align=center;verticalAlign=middle;whiteSpace=wrap;rounded=1;fontSize=20;fillColor=#b1ddf0;strokeColor=#10739e;" vertex="1" parent="1">
          <mxGeometry x="920" y="2080" width="40" height="40" as="geometry" />
        </mxCell>
        <mxCell id="pppeQQV8sNg-4FHpJXWI-414" value="" style="rounded=0;whiteSpace=wrap;html=1;" vertex="1" parent="1">
          <mxGeometry x="880" y="2190" width="120" height="120" as="geometry" />
        </mxCell>
        <mxCell id="pppeQQV8sNg-4FHpJXWI-417" value="🔑" style="text;html=1;align=center;verticalAlign=middle;whiteSpace=wrap;rounded=1;fontSize=20;fillColor=#d5e8d4;strokeColor=#82b366;" vertex="1" parent="1">
          <mxGeometry x="920" y="2230" width="40" height="40" as="geometry" />
        </mxCell>
        <mxCell id="pppeQQV8sNg-4FHpJXWI-418" style="edgeStyle=orthogonalEdgeStyle;rounded=0;orthogonalLoop=1;jettySize=auto;html=1;entryX=0.5;entryY=1;entryDx=0;entryDy=0;" edge="1" parent="1" source="pppeQQV8sNg-4FHpJXWI-422" target="pppeQQV8sNg-4FHpJXWI-425">
          <mxGeometry relative="1" as="geometry" />
        </mxCell>
        <mxCell id="pppeQQV8sNg-4FHpJXWI-419" style="edgeStyle=orthogonalEdgeStyle;rounded=0;orthogonalLoop=1;jettySize=auto;html=1;exitX=1;exitY=0.25;exitDx=0;exitDy=0;entryX=0;entryY=0.5;entryDx=0;entryDy=0;" edge="1" parent="1" source="pppeQQV8sNg-4FHpJXWI-422" target="pppeQQV8sNg-4FHpJXWI-427">
          <mxGeometry relative="1" as="geometry" />
        </mxCell>
        <mxCell id="pppeQQV8sNg-4FHpJXWI-420" style="edgeStyle=orthogonalEdgeStyle;rounded=0;orthogonalLoop=1;jettySize=auto;html=1;exitX=1;exitY=0.5;exitDx=0;exitDy=0;" edge="1" parent="1" source="pppeQQV8sNg-4FHpJXWI-422" target="pppeQQV8sNg-4FHpJXWI-434">
          <mxGeometry relative="1" as="geometry" />
        </mxCell>
        <mxCell id="pppeQQV8sNg-4FHpJXWI-421" style="edgeStyle=orthogonalEdgeStyle;rounded=0;orthogonalLoop=1;jettySize=auto;html=1;exitX=1;exitY=0.75;exitDx=0;exitDy=0;entryX=0;entryY=0.5;entryDx=0;entryDy=0;" edge="1" parent="1" source="pppeQQV8sNg-4FHpJXWI-422" target="pppeQQV8sNg-4FHpJXWI-436">
          <mxGeometry relative="1" as="geometry" />
        </mxCell>
        <mxCell id="pppeQQV8sNg-4FHpJXWI-444" style="edgeStyle=orthogonalEdgeStyle;rounded=0;orthogonalLoop=1;jettySize=auto;html=1;exitX=0;exitY=0.25;exitDx=0;exitDy=0;entryX=1;entryY=0.5;entryDx=0;entryDy=0;" edge="1" parent="1" source="pppeQQV8sNg-4FHpJXWI-422" target="pppeQQV8sNg-4FHpJXWI-438">
          <mxGeometry relative="1" as="geometry" />
        </mxCell>
        <mxCell id="pppeQQV8sNg-4FHpJXWI-445" style="edgeStyle=orthogonalEdgeStyle;rounded=0;orthogonalLoop=1;jettySize=auto;html=1;exitX=0;exitY=0.5;exitDx=0;exitDy=0;entryX=1;entryY=0.5;entryDx=0;entryDy=0;" edge="1" parent="1" source="pppeQQV8sNg-4FHpJXWI-422" target="pppeQQV8sNg-4FHpJXWI-440">
          <mxGeometry relative="1" as="geometry" />
        </mxCell>
        <mxCell id="pppeQQV8sNg-4FHpJXWI-446" style="edgeStyle=orthogonalEdgeStyle;rounded=0;orthogonalLoop=1;jettySize=auto;html=1;exitX=0;exitY=0.75;exitDx=0;exitDy=0;entryX=1;entryY=0.5;entryDx=0;entryDy=0;" edge="1" parent="1" source="pppeQQV8sNg-4FHpJXWI-422" target="pppeQQV8sNg-4FHpJXWI-442">
          <mxGeometry relative="1" as="geometry" />
        </mxCell>
        <mxCell id="pppeQQV8sNg-4FHpJXWI-422" value="" style="rounded=0;whiteSpace=wrap;html=1;" vertex="1" parent="1">
          <mxGeometry x="220" y="1970" width="160" height="280" as="geometry" />
        </mxCell>
        <mxCell id="pppeQQV8sNg-4FHpJXWI-423" style="edgeStyle=orthogonalEdgeStyle;rounded=0;orthogonalLoop=1;jettySize=auto;html=1;entryX=0.5;entryY=1;entryDx=0;entryDy=0;" edge="1" parent="1" source="pppeQQV8sNg-4FHpJXWI-424" target="pppeQQV8sNg-4FHpJXWI-422">
          <mxGeometry relative="1" as="geometry" />
        </mxCell>
        <mxCell id="pppeQQV8sNg-4FHpJXWI-424" value="start" style="rounded=0;whiteSpace=wrap;html=1;fillColor=#b0e3e6;strokeColor=#0e8088;" vertex="1" parent="1">
          <mxGeometry x="260" y="2290" width="80" height="40" as="geometry" />
        </mxCell>
        <mxCell id="pppeQQV8sNg-4FHpJXWI-425" value="" style="rounded=0;whiteSpace=wrap;html=1;" vertex="1" parent="1">
          <mxGeometry x="260" y="1840" width="80" height="80" as="geometry" />
        </mxCell>
        <mxCell id="pppeQQV8sNg-4FHpJXWI-427" value="" style="rounded=0;whiteSpace=wrap;html=1;" vertex="1" parent="1">
          <mxGeometry x="440" y="1900" width="120" height="120" as="geometry" />
        </mxCell>
        <mxCell id="pppeQQV8sNg-4FHpJXWI-428" value="🔑" style="text;html=1;align=center;verticalAlign=middle;whiteSpace=wrap;rounded=1;fontSize=20;fillColor=#fad9d5;strokeColor=#ae4132;" vertex="1" parent="1">
          <mxGeometry x="480" y="1940" width="40" height="40" as="geometry" />
        </mxCell>
        <mxCell id="pppeQQV8sNg-4FHpJXWI-429" value="" style="group" vertex="1" connectable="0" parent="1">
          <mxGeometry x="230" y="1950" width="140" height="60" as="geometry" />
        </mxCell>
        <mxCell id="pppeQQV8sNg-4FHpJXWI-430" value="" style="rounded=1;whiteSpace=wrap;html=1;dashed=1;dashPattern=1 4;" vertex="1" parent="pppeQQV8sNg-4FHpJXWI-429">
          <mxGeometry width="140" height="60" as="geometry" />
        </mxCell>
        <mxCell id="pppeQQV8sNg-4FHpJXWI-431" value="🔒" style="text;html=1;align=center;verticalAlign=middle;whiteSpace=wrap;rounded=1;fontSize=20;fillColor=#fad9d5;strokeColor=#ae4132;" vertex="1" parent="pppeQQV8sNg-4FHpJXWI-429">
          <mxGeometry x="10" y="10" width="40" height="40" as="geometry" />
        </mxCell>
        <mxCell id="pppeQQV8sNg-4FHpJXWI-432" value="🔒" style="text;html=1;align=center;verticalAlign=middle;whiteSpace=wrap;rounded=1;fontSize=20;fillColor=#b1ddf0;strokeColor=#10739e;" vertex="1" parent="pppeQQV8sNg-4FHpJXWI-429">
          <mxGeometry x="50" y="10" width="40" height="40" as="geometry" />
        </mxCell>
        <mxCell id="pppeQQV8sNg-4FHpJXWI-433" value="🔒" style="text;html=1;align=center;verticalAlign=middle;whiteSpace=wrap;rounded=1;fontSize=20;fillColor=#d5e8d4;strokeColor=#82b366;" vertex="1" parent="pppeQQV8sNg-4FHpJXWI-429">
          <mxGeometry x="90" y="10" width="40" height="40" as="geometry" />
        </mxCell>
        <mxCell id="pppeQQV8sNg-4FHpJXWI-434" value="" style="rounded=0;whiteSpace=wrap;html=1;" vertex="1" parent="1">
          <mxGeometry x="440" y="2050" width="120" height="120" as="geometry" />
        </mxCell>
        <mxCell id="pppeQQV8sNg-4FHpJXWI-435" value="🔑" style="text;html=1;align=center;verticalAlign=middle;whiteSpace=wrap;rounded=1;fontSize=20;fillColor=#b1ddf0;strokeColor=#10739e;" vertex="1" parent="1">
          <mxGeometry x="480" y="2090" width="40" height="40" as="geometry" />
        </mxCell>
        <mxCell id="pppeQQV8sNg-4FHpJXWI-436" value="" style="rounded=0;whiteSpace=wrap;html=1;" vertex="1" parent="1">
          <mxGeometry x="440" y="2200" width="120" height="120" as="geometry" />
        </mxCell>
        <mxCell id="pppeQQV8sNg-4FHpJXWI-437" value="🔑" style="text;html=1;align=center;verticalAlign=middle;whiteSpace=wrap;rounded=1;fontSize=20;fillColor=#d5e8d4;strokeColor=#82b366;" vertex="1" parent="1">
          <mxGeometry x="480" y="2240" width="40" height="40" as="geometry" />
        </mxCell>
        <mxCell id="pppeQQV8sNg-4FHpJXWI-438" value="" style="rounded=0;whiteSpace=wrap;html=1;" vertex="1" parent="1">
          <mxGeometry x="40" y="1900" width="120" height="120" as="geometry" />
        </mxCell>
        <mxCell id="pppeQQV8sNg-4FHpJXWI-440" value="" style="rounded=0;whiteSpace=wrap;html=1;" vertex="1" parent="1">
          <mxGeometry x="40" y="2050" width="120" height="120" as="geometry" />
        </mxCell>
        <mxCell id="pppeQQV8sNg-4FHpJXWI-442" value="" style="rounded=0;whiteSpace=wrap;html=1;" vertex="1" parent="1">
          <mxGeometry x="40" y="2200" width="120" height="120" as="geometry" />
        </mxCell>
        <mxCell id="pppeQQV8sNg-4FHpJXWI-447" value="🔑" style="text;html=1;align=center;verticalAlign=middle;whiteSpace=wrap;rounded=1;fontSize=20;fillColor=#f5f5f5;fontColor=#333333;strokeColor=#666666;" vertex="1" parent="1">
          <mxGeometry x="80" y="1940" width="40" height="40" as="geometry" />
        </mxCell>
        <mxCell id="pppeQQV8sNg-4FHpJXWI-448" value="🔑" style="text;html=1;align=center;verticalAlign=middle;whiteSpace=wrap;rounded=1;fontSize=20;fillColor=#f5f5f5;fontColor=#333333;strokeColor=#666666;" vertex="1" parent="1">
          <mxGeometry x="80" y="2090" width="40" height="40" as="geometry" />
        </mxCell>
        <mxCell id="pppeQQV8sNg-4FHpJXWI-449" value="🔑" style="text;html=1;align=center;verticalAlign=middle;whiteSpace=wrap;rounded=1;fontSize=20;fillColor=#f5f5f5;fontColor=#333333;strokeColor=#666666;" vertex="1" parent="1">
          <mxGeometry x="80" y="2240" width="40" height="40" as="geometry" />
        </mxCell>
        <mxCell id="pppeQQV8sNg-4FHpJXWI-450" value="🔒" style="text;html=1;align=center;verticalAlign=middle;whiteSpace=wrap;rounded=1;fontSize=20;fillColor=#f5f5f5;strokeColor=#666666;fontColor=#333333;" vertex="1" parent="1">
          <mxGeometry x="360" y="2020" width="40" height="40" as="geometry" />
        </mxCell>
        <mxCell id="pppeQQV8sNg-4FHpJXWI-451" value="🔒" style="text;html=1;align=center;verticalAlign=middle;whiteSpace=wrap;rounded=1;fontSize=20;fillColor=#f5f5f5;strokeColor=#666666;fontColor=#333333;" vertex="1" parent="1">
          <mxGeometry x="360" y="2090" width="40" height="40" as="geometry" />
        </mxCell>
        <mxCell id="pppeQQV8sNg-4FHpJXWI-452" value="🔒" style="text;html=1;align=center;verticalAlign=middle;whiteSpace=wrap;rounded=1;fontSize=20;fillColor=#f5f5f5;strokeColor=#666666;fontColor=#333333;" vertex="1" parent="1">
          <mxGeometry x="360" y="2160" width="40" height="40" as="geometry" />
        </mxCell>
        <mxCell id="pppeQQV8sNg-4FHpJXWI-454" value="Keys are:&lt;div&gt;- switch that opens door&lt;/div&gt;&lt;div&gt;&lt;span style=&quot;background-color: transparent; color: light-dark(rgb(0, 0, 0), rgb(255, 255, 255));&quot;&gt;- a keyphrase or keycode&lt;/span&gt;&lt;/div&gt;&lt;div&gt;- a physical key&lt;/div&gt;&lt;div&gt;&lt;br&gt;&lt;/div&gt;&lt;div&gt;&lt;span style=&quot;background-color: transparent; color: light-dark(rgb(0, 0, 0), rgb(255, 255, 255));&quot;&gt;Doors are:&lt;/span&gt;&lt;/div&gt;&lt;div&gt;- Gates&lt;/div&gt;&lt;div&gt;- Cave obstructed&lt;/div&gt;&lt;div&gt;- NPCs blocking the path&lt;/div&gt;&lt;div&gt;- A bottomless pit that needs a bridge&lt;/div&gt;&lt;div&gt;- Locked door&lt;/div&gt;&lt;div&gt;- stairwell that needs to be activated/elevated&lt;/div&gt;&lt;div&gt;&lt;br&gt;&lt;/div&gt;&lt;div&gt;&lt;div&gt;Obtaining keys:&lt;/div&gt;&lt;div&gt;- finding hints in the environment&lt;/div&gt;&lt;div&gt;- a dialog choice&lt;/div&gt;&lt;/div&gt;&lt;div&gt;&lt;div&gt;- getting switches in order&lt;/div&gt;&lt;/div&gt;&lt;div&gt;&lt;div&gt;&lt;div&gt;- defeating an opponent&lt;/div&gt;&lt;div&gt;- defeating a wave of opponents&lt;/div&gt;&lt;div&gt;- defeating a boss&lt;/div&gt;&lt;/div&gt;&lt;div&gt;- decyphering a cryptic message&lt;/div&gt;&lt;div&gt;- putting blocks in the right place&lt;/div&gt;&lt;/div&gt;&lt;div&gt;&lt;div&gt;- dialoging with a character&lt;/div&gt;&lt;div&gt;&lt;br&gt;&lt;/div&gt;&lt;div&gt;&lt;/div&gt;&lt;/div&gt;" style="text;html=1;align=left;verticalAlign=top;whiteSpace=wrap;rounded=0;" vertex="1" parent="1">
          <mxGeometry x="80" y="1070" width="290" height="420" as="geometry" />
        </mxCell>
        <mxCell id="pppeQQV8sNg-4FHpJXWI-455" style="edgeStyle=orthogonalEdgeStyle;rounded=0;orthogonalLoop=1;jettySize=auto;html=1;entryX=0.5;entryY=1;entryDx=0;entryDy=0;" edge="1" parent="1" source="pppeQQV8sNg-4FHpJXWI-459" target="pppeQQV8sNg-4FHpJXWI-462">
          <mxGeometry relative="1" as="geometry" />
        </mxCell>
        <mxCell id="pppeQQV8sNg-4FHpJXWI-459" value="" style="rounded=0;whiteSpace=wrap;html=1;" vertex="1" parent="1">
          <mxGeometry x="600" y="2540" width="280" height="140" as="geometry" />
        </mxCell>
        <mxCell id="pppeQQV8sNg-4FHpJXWI-460" style="edgeStyle=orthogonalEdgeStyle;rounded=0;orthogonalLoop=1;jettySize=auto;html=1;entryX=0.5;entryY=1;entryDx=0;entryDy=0;" edge="1" parent="1" source="pppeQQV8sNg-4FHpJXWI-461" target="pppeQQV8sNg-4FHpJXWI-459">
          <mxGeometry relative="1" as="geometry" />
        </mxCell>
        <mxCell id="pppeQQV8sNg-4FHpJXWI-461" value="start" style="rounded=0;whiteSpace=wrap;html=1;fillColor=#b0e3e6;strokeColor=#0e8088;" vertex="1" parent="1">
          <mxGeometry x="700" y="2720" width="80" height="40" as="geometry" />
        </mxCell>
        <mxCell id="pppeQQV8sNg-4FHpJXWI-462" value="" style="rounded=0;whiteSpace=wrap;html=1;" vertex="1" parent="1">
          <mxGeometry x="700" y="2410" width="80" height="80" as="geometry" />
        </mxCell>
        <mxCell id="pppeQQV8sNg-4FHpJXWI-465" value="🔑" style="text;html=1;align=center;verticalAlign=middle;whiteSpace=wrap;rounded=1;fontSize=20;fillColor=#fad9d5;strokeColor=#ae4132;" vertex="1" parent="1">
          <mxGeometry x="660" y="2610" width="40" height="40" as="geometry" />
        </mxCell>
        <mxCell id="pppeQQV8sNg-4FHpJXWI-466" value="" style="group" vertex="1" connectable="0" parent="1">
          <mxGeometry x="670" y="2520" width="140" height="60" as="geometry" />
        </mxCell>
        <mxCell id="pppeQQV8sNg-4FHpJXWI-467" value="" style="rounded=1;whiteSpace=wrap;html=1;dashed=1;dashPattern=1 4;" vertex="1" parent="pppeQQV8sNg-4FHpJXWI-466">
          <mxGeometry width="140" height="60" as="geometry" />
        </mxCell>
        <mxCell id="pppeQQV8sNg-4FHpJXWI-468" value="🔒" style="text;html=1;align=center;verticalAlign=middle;whiteSpace=wrap;rounded=1;fontSize=20;fillColor=#fad9d5;strokeColor=#ae4132;" vertex="1" parent="pppeQQV8sNg-4FHpJXWI-466">
          <mxGeometry x="10" y="10" width="40" height="40" as="geometry" />
        </mxCell>
        <mxCell id="pppeQQV8sNg-4FHpJXWI-469" value="🔒" style="text;html=1;align=center;verticalAlign=middle;whiteSpace=wrap;rounded=1;fontSize=20;fillColor=#b1ddf0;strokeColor=#10739e;" vertex="1" parent="pppeQQV8sNg-4FHpJXWI-466">
          <mxGeometry x="50" y="10" width="40" height="40" as="geometry" />
        </mxCell>
        <mxCell id="pppeQQV8sNg-4FHpJXWI-470" value="🔒" style="text;html=1;align=center;verticalAlign=middle;whiteSpace=wrap;rounded=1;fontSize=20;fillColor=#d5e8d4;strokeColor=#82b366;" vertex="1" parent="pppeQQV8sNg-4FHpJXWI-466">
          <mxGeometry x="90" y="10" width="40" height="40" as="geometry" />
        </mxCell>
        <mxCell id="pppeQQV8sNg-4FHpJXWI-472" value="🔑" style="text;html=1;align=center;verticalAlign=middle;whiteSpace=wrap;rounded=1;fontSize=20;fillColor=#b1ddf0;strokeColor=#10739e;" vertex="1" parent="1">
          <mxGeometry x="720" y="2610" width="40" height="40" as="geometry" />
        </mxCell>
        <mxCell id="pppeQQV8sNg-4FHpJXWI-474" value="🔑" style="text;html=1;align=center;verticalAlign=middle;whiteSpace=wrap;rounded=1;fontSize=20;fillColor=#d5e8d4;strokeColor=#82b366;" vertex="1" parent="1">
          <mxGeometry x="780" y="2610" width="40" height="40" as="geometry" />
        </mxCell>
        <mxCell id="pppeQQV8sNg-4FHpJXWI-475" style="edgeStyle=orthogonalEdgeStyle;rounded=0;orthogonalLoop=1;jettySize=auto;html=1;entryX=0.5;entryY=1;entryDx=0;entryDy=0;" edge="1" parent="1" source="pppeQQV8sNg-4FHpJXWI-476" target="pppeQQV8sNg-4FHpJXWI-479">
          <mxGeometry relative="1" as="geometry" />
        </mxCell>
        <mxCell id="pppeQQV8sNg-4FHpJXWI-476" value="" style="rounded=0;whiteSpace=wrap;html=1;" vertex="1" parent="1">
          <mxGeometry x="1040" y="2540" width="200" height="140" as="geometry" />
        </mxCell>
        <mxCell id="pppeQQV8sNg-4FHpJXWI-477" style="edgeStyle=orthogonalEdgeStyle;rounded=0;orthogonalLoop=1;jettySize=auto;html=1;entryX=0.5;entryY=1;entryDx=0;entryDy=0;" edge="1" parent="1" source="pppeQQV8sNg-4FHpJXWI-478" target="pppeQQV8sNg-4FHpJXWI-476">
          <mxGeometry relative="1" as="geometry" />
        </mxCell>
        <mxCell id="pppeQQV8sNg-4FHpJXWI-478" value="start" style="rounded=0;whiteSpace=wrap;html=1;fillColor=#b0e3e6;strokeColor=#0e8088;" vertex="1" parent="1">
          <mxGeometry x="1100" y="2720" width="80" height="40" as="geometry" />
        </mxCell>
        <mxCell id="pppeQQV8sNg-4FHpJXWI-479" value="" style="rounded=0;whiteSpace=wrap;html=1;" vertex="1" parent="1">
          <mxGeometry x="1100" y="2400" width="80" height="80" as="geometry" />
        </mxCell>
        <mxCell id="pppeQQV8sNg-4FHpJXWI-481" value="🔑" style="text;html=1;align=center;verticalAlign=middle;whiteSpace=wrap;rounded=1;fontSize=20;fillColor=#fad9d5;strokeColor=#ae4132;" vertex="1" parent="1">
          <mxGeometry x="1090" y="2600" width="40" height="40" as="geometry" />
        </mxCell>
        <mxCell id="pppeQQV8sNg-4FHpJXWI-487" value="🔑" style="text;html=1;align=center;verticalAlign=middle;whiteSpace=wrap;rounded=1;fontSize=20;fillColor=#b1ddf0;strokeColor=#10739e;" vertex="1" parent="1">
          <mxGeometry x="1150" y="2600" width="40" height="40" as="geometry" />
        </mxCell>
        <mxCell id="pppeQQV8sNg-4FHpJXWI-489" value="" style="group" vertex="1" connectable="0" parent="1">
          <mxGeometry x="1090" y="2510" width="100" height="60" as="geometry" />
        </mxCell>
        <mxCell id="pppeQQV8sNg-4FHpJXWI-490" value="" style="rounded=1;whiteSpace=wrap;html=1;dashed=1;dashPattern=1 4;" vertex="1" parent="pppeQQV8sNg-4FHpJXWI-489">
          <mxGeometry width="100" height="60" as="geometry" />
        </mxCell>
        <mxCell id="pppeQQV8sNg-4FHpJXWI-491" value="🔒" style="text;html=1;align=center;verticalAlign=middle;whiteSpace=wrap;rounded=1;fontSize=20;fillColor=#fad9d5;strokeColor=#ae4132;" vertex="1" parent="pppeQQV8sNg-4FHpJXWI-489">
          <mxGeometry x="10" y="10" width="40" height="40" as="geometry" />
        </mxCell>
        <mxCell id="pppeQQV8sNg-4FHpJXWI-492" value="🔒" style="text;html=1;align=center;verticalAlign=middle;whiteSpace=wrap;rounded=1;fontSize=20;fillColor=#b1ddf0;strokeColor=#10739e;" vertex="1" parent="pppeQQV8sNg-4FHpJXWI-489">
          <mxGeometry x="50" y="10" width="40" height="40" as="geometry" />
        </mxCell>
        <mxCell id="pppeQQV8sNg-4FHpJXWI-507" value="" style="rounded=0;whiteSpace=wrap;html=1;" vertex="1" parent="1">
          <mxGeometry x="320" y="1520" width="160" height="160" as="geometry" />
        </mxCell>
        <mxCell id="pppeQQV8sNg-4FHpJXWI-508" style="edgeStyle=orthogonalEdgeStyle;rounded=0;orthogonalLoop=1;jettySize=auto;html=1;entryX=0.5;entryY=1;entryDx=0;entryDy=0;" edge="1" parent="1" source="pppeQQV8sNg-4FHpJXWI-509" target="pppeQQV8sNg-4FHpJXWI-507">
          <mxGeometry relative="1" as="geometry" />
        </mxCell>
        <mxCell id="pppeQQV8sNg-4FHpJXWI-509" value="start" style="rounded=0;whiteSpace=wrap;html=1;fillColor=#b0e3e6;strokeColor=#0e8088;" vertex="1" parent="1">
          <mxGeometry x="360" y="1720" width="80" height="40" as="geometry" />
        </mxCell>
        <mxCell id="pppeQQV8sNg-4FHpJXWI-510" style="edgeStyle=orthogonalEdgeStyle;rounded=0;orthogonalLoop=1;jettySize=auto;html=1;entryX=0.5;entryY=1;entryDx=0;entryDy=0;" edge="1" parent="1" target="pppeQQV8sNg-4FHpJXWI-513">
          <mxGeometry relative="1" as="geometry">
            <mxPoint x="400" y="1500" as="sourcePoint" />
          </mxGeometry>
        </mxCell>
        <mxCell id="pppeQQV8sNg-4FHpJXWI-513" value="" style="rounded=0;whiteSpace=wrap;html=1;" vertex="1" parent="1">
          <mxGeometry x="360" y="1400" width="80" height="80" as="geometry" />
        </mxCell>
        <mxCell id="pppeQQV8sNg-4FHpJXWI-514" value="🚪&lt;div&gt;&lt;font style=&quot;font-size: 12px;&quot;&gt;exit&lt;/font&gt;&lt;/div&gt;" style="text;html=1;align=center;verticalAlign=middle;whiteSpace=wrap;rounded=0;fontSize=20;fillColor=#b0e3e6;strokeColor=#0e8088;glass=0;shadow=0;fontFamily=Helvetica;" vertex="1" parent="1">
          <mxGeometry x="367.5" y="1410" width="65" height="60" as="geometry" />
        </mxCell>
        <mxCell id="pppeQQV8sNg-4FHpJXWI-515" value="🔒" style="text;html=1;align=center;verticalAlign=middle;whiteSpace=wrap;rounded=1;fontSize=20;fillColor=#fad9d5;strokeColor=#ae4132;" vertex="1" parent="1">
          <mxGeometry x="380" y="1500" width="40" height="40" as="geometry" />
        </mxCell>
        <mxCell id="pppeQQV8sNg-4FHpJXWI-516" value="🔑" style="text;html=1;align=center;verticalAlign=middle;whiteSpace=wrap;rounded=1;fontSize=20;fillColor=#fad9d5;strokeColor=#ae4132;" vertex="1" parent="1">
          <mxGeometry x="380" y="1580" width="40" height="40" as="geometry" />
        </mxCell>
        <mxCell id="pppeQQV8sNg-4FHpJXWI-517" style="edgeStyle=orthogonalEdgeStyle;rounded=0;orthogonalLoop=1;jettySize=auto;html=1;entryX=1;entryY=0.5;entryDx=0;entryDy=0;" edge="1" parent="1" source="pppeQQV8sNg-4FHpJXWI-518" target="pppeQQV8sNg-4FHpJXWI-525">
          <mxGeometry relative="1" as="geometry" />
        </mxCell>
        <mxCell id="pppeQQV8sNg-4FHpJXWI-518" value="" style="rounded=0;whiteSpace=wrap;html=1;" vertex="1" parent="1">
          <mxGeometry x="2120" y="2500" width="160" height="160" as="geometry" />
        </mxCell>
        <mxCell id="pppeQQV8sNg-4FHpJXWI-519" style="edgeStyle=orthogonalEdgeStyle;rounded=0;orthogonalLoop=1;jettySize=auto;html=1;entryX=0.5;entryY=1;entryDx=0;entryDy=0;" edge="1" parent="1" source="pppeQQV8sNg-4FHpJXWI-520" target="pppeQQV8sNg-4FHpJXWI-518">
          <mxGeometry relative="1" as="geometry" />
        </mxCell>
        <mxCell id="pppeQQV8sNg-4FHpJXWI-520" value="start" style="rounded=0;whiteSpace=wrap;html=1;fillColor=#b0e3e6;strokeColor=#0e8088;" vertex="1" parent="1">
          <mxGeometry x="2160" y="2700" width="80" height="40" as="geometry" />
        </mxCell>
        <mxCell id="pppeQQV8sNg-4FHpJXWI-521" style="edgeStyle=orthogonalEdgeStyle;rounded=0;orthogonalLoop=1;jettySize=auto;html=1;entryX=0.5;entryY=1;entryDx=0;entryDy=0;" edge="1" parent="1" source="pppeQQV8sNg-4FHpJXWI-522" target="pppeQQV8sNg-4FHpJXWI-527">
          <mxGeometry relative="1" as="geometry" />
        </mxCell>
        <mxCell id="pppeQQV8sNg-4FHpJXWI-522" value="🔒" style="text;html=1;align=center;verticalAlign=middle;whiteSpace=wrap;rounded=1;fontSize=20;fillColor=#fad9d5;strokeColor=#ae4132;" vertex="1" parent="1">
          <mxGeometry x="2180" y="2480" width="40" height="40" as="geometry" />
        </mxCell>
        <mxCell id="pppeQQV8sNg-4FHpJXWI-523" value="" style="edgeStyle=orthogonalEdgeStyle;rounded=0;orthogonalLoop=1;jettySize=auto;html=1;" edge="1" parent="1" source="pppeQQV8sNg-4FHpJXWI-524">
          <mxGeometry relative="1" as="geometry">
            <mxPoint x="2370" y="2580" as="targetPoint" />
          </mxGeometry>
        </mxCell>
        <mxCell id="pppeQQV8sNg-4FHpJXWI-524" value="🔒" style="text;html=1;align=center;verticalAlign=middle;whiteSpace=wrap;rounded=1;fontSize=20;fillColor=#f5f5f5;strokeColor=#666666;fontColor=#333333;" vertex="1" parent="1">
          <mxGeometry x="2260" y="2560" width="40" height="40" as="geometry" />
        </mxCell>
        <mxCell id="pppeQQV8sNg-4FHpJXWI-525" value="" style="rounded=0;whiteSpace=wrap;html=1;" vertex="1" parent="1">
          <mxGeometry x="1400" y="2370" width="650" height="420" as="geometry" />
        </mxCell>
        <mxCell id="pppeQQV8sNg-4FHpJXWI-527" value="" style="rounded=0;whiteSpace=wrap;html=1;" vertex="1" parent="1">
          <mxGeometry x="2160" y="2380" width="80" height="80" as="geometry" />
        </mxCell>
        <mxCell id="pppeQQV8sNg-4FHpJXWI-531" style="edgeStyle=orthogonalEdgeStyle;rounded=0;orthogonalLoop=1;jettySize=auto;html=1;entryX=1;entryY=0.5;entryDx=0;entryDy=0;" edge="1" parent="1" source="pppeQQV8sNg-4FHpJXWI-534" target="pppeQQV8sNg-4FHpJXWI-537">
          <mxGeometry relative="1" as="geometry" />
        </mxCell>
        <mxCell id="pppeQQV8sNg-4FHpJXWI-532" style="edgeStyle=orthogonalEdgeStyle;rounded=0;orthogonalLoop=1;jettySize=auto;html=1;entryX=0.5;entryY=1;entryDx=0;entryDy=0;" edge="1" parent="1" source="pppeQQV8sNg-4FHpJXWI-534" target="pppeQQV8sNg-4FHpJXWI-538">
          <mxGeometry relative="1" as="geometry" />
        </mxCell>
        <mxCell id="pppeQQV8sNg-4FHpJXWI-533" style="edgeStyle=orthogonalEdgeStyle;rounded=0;orthogonalLoop=1;jettySize=auto;html=1;entryX=0;entryY=0.5;entryDx=0;entryDy=0;" edge="1" parent="1" source="pppeQQV8sNg-4FHpJXWI-534" target="pppeQQV8sNg-4FHpJXWI-540">
          <mxGeometry relative="1" as="geometry" />
        </mxCell>
        <mxCell id="pppeQQV8sNg-4FHpJXWI-534" value="" style="rounded=0;whiteSpace=wrap;html=1;" vertex="1" parent="1">
          <mxGeometry x="1620" y="2520" width="200" height="160" as="geometry" />
        </mxCell>
        <mxCell id="pppeQQV8sNg-4FHpJXWI-535" style="edgeStyle=orthogonalEdgeStyle;rounded=0;orthogonalLoop=1;jettySize=auto;html=1;entryX=0.5;entryY=1;entryDx=0;entryDy=0;" edge="1" parent="1" source="pppeQQV8sNg-4FHpJXWI-536" target="pppeQQV8sNg-4FHpJXWI-534">
          <mxGeometry relative="1" as="geometry" />
        </mxCell>
        <mxCell id="pppeQQV8sNg-4FHpJXWI-536" value="start" style="rounded=0;whiteSpace=wrap;html=1;fillColor=#b0e3e6;strokeColor=#0e8088;" vertex="1" parent="1">
          <mxGeometry x="1680" y="2720" width="80" height="40" as="geometry" />
        </mxCell>
        <mxCell id="pppeQQV8sNg-4FHpJXWI-537" value="" style="rounded=0;whiteSpace=wrap;html=1;" vertex="1" parent="1">
          <mxGeometry x="1440" y="2540" width="120" height="120" as="geometry" />
        </mxCell>
        <mxCell id="pppeQQV8sNg-4FHpJXWI-538" value="" style="rounded=0;whiteSpace=wrap;html=1;" vertex="1" parent="1">
          <mxGeometry x="1680" y="2400" width="80" height="80" as="geometry" />
        </mxCell>
        <mxCell id="pppeQQV8sNg-4FHpJXWI-540" value="" style="rounded=0;whiteSpace=wrap;html=1;" vertex="1" parent="1">
          <mxGeometry x="1880" y="2540" width="120" height="120" as="geometry" />
        </mxCell>
        <mxCell id="pppeQQV8sNg-4FHpJXWI-541" value="🔑" style="text;html=1;align=center;verticalAlign=middle;whiteSpace=wrap;rounded=1;fontSize=20;fillColor=#fad9d5;strokeColor=#ae4132;" vertex="1" parent="1">
          <mxGeometry x="1920" y="2580" width="40" height="40" as="geometry" />
        </mxCell>
        <mxCell id="pppeQQV8sNg-4FHpJXWI-542" value="🔑" style="text;html=1;align=center;verticalAlign=middle;whiteSpace=wrap;rounded=1;fontSize=20;fillColor=#b1ddf0;strokeColor=#10739e;" vertex="1" parent="1">
          <mxGeometry x="1480" y="2580" width="40" height="40" as="geometry" />
        </mxCell>
        <mxCell id="pppeQQV8sNg-4FHpJXWI-543" value="🔑" style="text;html=1;align=center;verticalAlign=middle;whiteSpace=wrap;rounded=1;fontSize=20;fillColor=#d5e8d4;strokeColor=#82b366;" vertex="1" parent="1">
          <mxGeometry x="1700" y="2590" width="40" height="40" as="geometry" />
        </mxCell>
        <mxCell id="pppeQQV8sNg-4FHpJXWI-544" value="" style="group" vertex="1" connectable="0" parent="1">
          <mxGeometry x="1650" y="2490" width="140" height="60" as="geometry" />
        </mxCell>
        <mxCell id="pppeQQV8sNg-4FHpJXWI-545" value="" style="rounded=1;whiteSpace=wrap;html=1;dashed=1;dashPattern=1 4;" vertex="1" parent="pppeQQV8sNg-4FHpJXWI-544">
          <mxGeometry width="140" height="60" as="geometry" />
        </mxCell>
        <mxCell id="pppeQQV8sNg-4FHpJXWI-546" value="🔒" style="text;html=1;align=center;verticalAlign=middle;whiteSpace=wrap;rounded=1;fontSize=20;fillColor=#fad9d5;strokeColor=#ae4132;" vertex="1" parent="pppeQQV8sNg-4FHpJXWI-544">
          <mxGeometry x="10" y="10" width="40" height="40" as="geometry" />
        </mxCell>
        <mxCell id="pppeQQV8sNg-4FHpJXWI-547" value="🔒" style="text;html=1;align=center;verticalAlign=middle;whiteSpace=wrap;rounded=1;fontSize=20;fillColor=#b1ddf0;strokeColor=#10739e;" vertex="1" parent="pppeQQV8sNg-4FHpJXWI-544">
          <mxGeometry x="50" y="10" width="40" height="40" as="geometry" />
        </mxCell>
        <mxCell id="pppeQQV8sNg-4FHpJXWI-548" value="🔒" style="text;html=1;align=center;verticalAlign=middle;whiteSpace=wrap;rounded=1;fontSize=20;fillColor=#d5e8d4;strokeColor=#82b366;" vertex="1" parent="pppeQQV8sNg-4FHpJXWI-544">
          <mxGeometry x="90" y="10" width="40" height="40" as="geometry" />
        </mxCell>
        <mxCell id="pppeQQV8sNg-4FHpJXWI-549" value="🔑" style="text;html=1;align=center;verticalAlign=middle;whiteSpace=wrap;rounded=1;fontSize=20;fillColor=#f5f5f5;fontColor=#333333;strokeColor=#666666;" vertex="1" parent="1">
          <mxGeometry x="1410" y="2380" width="40" height="40" as="geometry" />
        </mxCell>
        <mxCell id="pppeQQV8sNg-4FHpJXWI-550" style="edgeStyle=orthogonalEdgeStyle;rounded=0;orthogonalLoop=1;jettySize=auto;html=1;entryX=0.5;entryY=1;entryDx=0;entryDy=0;" edge="1" parent="1" source="pppeQQV8sNg-4FHpJXWI-551" target="pppeQQV8sNg-4FHpJXWI-554">
          <mxGeometry relative="1" as="geometry" />
        </mxCell>
        <mxCell id="pppeQQV8sNg-4FHpJXWI-551" value="" style="rounded=0;whiteSpace=wrap;html=1;" vertex="1" parent="1">
          <mxGeometry x="2420" y="1920" width="280" height="140" as="geometry" />
        </mxCell>
        <mxCell id="pppeQQV8sNg-4FHpJXWI-552" style="edgeStyle=orthogonalEdgeStyle;rounded=0;orthogonalLoop=1;jettySize=auto;html=1;entryX=0.5;entryY=1;entryDx=0;entryDy=0;" edge="1" parent="1" source="pppeQQV8sNg-4FHpJXWI-553" target="pppeQQV8sNg-4FHpJXWI-551">
          <mxGeometry relative="1" as="geometry" />
        </mxCell>
        <mxCell id="pppeQQV8sNg-4FHpJXWI-553" value="start" style="rounded=0;whiteSpace=wrap;html=1;fillColor=#b0e3e6;strokeColor=#0e8088;" vertex="1" parent="1">
          <mxGeometry x="2520" y="2100" width="80" height="40" as="geometry" />
        </mxCell>
        <mxCell id="pppeQQV8sNg-4FHpJXWI-554" value="" style="rounded=0;whiteSpace=wrap;html=1;" vertex="1" parent="1">
          <mxGeometry x="2520" y="1780" width="80" height="80" as="geometry" />
        </mxCell>
        <mxCell id="pppeQQV8sNg-4FHpJXWI-556" value="🔑" style="text;html=1;align=center;verticalAlign=middle;whiteSpace=wrap;rounded=1;fontSize=20;fillColor=#fad9d5;strokeColor=#ae4132;" vertex="1" parent="1">
          <mxGeometry x="2490" y="1980" width="40" height="40" as="geometry" />
        </mxCell>
        <mxCell id="pppeQQV8sNg-4FHpJXWI-557" value="🔑" style="text;html=1;align=center;verticalAlign=middle;whiteSpace=wrap;rounded=1;fontSize=20;fillColor=#b1ddf0;strokeColor=#10739e;" vertex="1" parent="1">
          <mxGeometry x="2600" y="1980" width="40" height="40" as="geometry" />
        </mxCell>
        <mxCell id="pppeQQV8sNg-4FHpJXWI-558" value="" style="group" vertex="1" connectable="0" parent="1">
          <mxGeometry x="2510" y="1890" width="100" height="60" as="geometry" />
        </mxCell>
        <mxCell id="pppeQQV8sNg-4FHpJXWI-559" value="" style="rounded=1;whiteSpace=wrap;html=1;dashed=1;dashPattern=1 4;" vertex="1" parent="pppeQQV8sNg-4FHpJXWI-558">
          <mxGeometry width="100" height="60" as="geometry" />
        </mxCell>
        <mxCell id="pppeQQV8sNg-4FHpJXWI-560" value="🔒" style="text;html=1;align=center;verticalAlign=middle;whiteSpace=wrap;rounded=1;fontSize=20;fillColor=#fad9d5;strokeColor=#ae4132;" vertex="1" parent="pppeQQV8sNg-4FHpJXWI-558">
          <mxGeometry x="10" y="10" width="40" height="40" as="geometry" />
        </mxCell>
        <mxCell id="pppeQQV8sNg-4FHpJXWI-561" value="🔒" style="text;html=1;align=center;verticalAlign=middle;whiteSpace=wrap;rounded=1;fontSize=20;fillColor=#b1ddf0;strokeColor=#10739e;" vertex="1" parent="pppeQQV8sNg-4FHpJXWI-558">
          <mxGeometry x="50" y="10" width="40" height="40" as="geometry" />
        </mxCell>
        <mxCell id="pppeQQV8sNg-4FHpJXWI-564" value="⭐️" style="text;html=1;align=center;verticalAlign=middle;whiteSpace=wrap;rounded=0;fontSize=20;fillColor=#b0e3e6;strokeColor=#0e8088;glass=0;shadow=0;fontFamily=Helvetica;" vertex="1" parent="1">
          <mxGeometry x="2540" y="1800" width="43.33" height="40" as="geometry" />
        </mxCell>
        <mxCell id="pppeQQV8sNg-4FHpJXWI-565" value="⭐️" style="text;html=1;align=center;verticalAlign=middle;whiteSpace=wrap;rounded=1;fontSize=20;glass=0;shadow=0;fontFamily=Helvetica;fillColor=#f5f5f5;strokeColor=#666666;fontColor=#333333;" vertex="1" parent="1">
          <mxGeometry x="2020" y="1860" width="43.33" height="40" as="geometry" />
        </mxCell>
        <mxCell id="pppeQQV8sNg-4FHpJXWI-566" value="⭐️" style="text;html=1;align=center;verticalAlign=middle;whiteSpace=wrap;rounded=1;fontSize=20;glass=0;shadow=0;fontFamily=Helvetica;fillColor=#f5f5f5;strokeColor=#666666;fontColor=#333333;" vertex="1" parent="1">
          <mxGeometry x="1380" y="1860" width="43.33" height="40" as="geometry" />
        </mxCell>
        <mxCell id="pppeQQV8sNg-4FHpJXWI-567" value="⭐️" style="text;html=1;align=center;verticalAlign=middle;whiteSpace=wrap;rounded=1;fontSize=20;glass=0;shadow=0;fontFamily=Helvetica;fillColor=#f5f5f5;strokeColor=#666666;fontColor=#333333;" vertex="1" parent="1">
          <mxGeometry x="1120" y="2420" width="43.33" height="40" as="geometry" />
        </mxCell>
        <mxCell id="pppeQQV8sNg-4FHpJXWI-568" value="⭐️" style="text;html=1;align=center;verticalAlign=middle;whiteSpace=wrap;rounded=1;fontSize=20;glass=0;shadow=0;fontFamily=Helvetica;fillColor=#f5f5f5;strokeColor=#666666;fontColor=#333333;" vertex="1" parent="1">
          <mxGeometry x="720" y="2430" width="43.33" height="40" as="geometry" />
        </mxCell>
        <mxCell id="pppeQQV8sNg-4FHpJXWI-569" value="⭐️" style="text;html=1;align=center;verticalAlign=middle;whiteSpace=wrap;rounded=1;fontSize=20;glass=0;shadow=0;fontFamily=Helvetica;fillColor=#f5f5f5;strokeColor=#666666;fontColor=#333333;" vertex="1" parent="1">
          <mxGeometry x="720" y="1850" width="43.33" height="40" as="geometry" />
        </mxCell>
        <mxCell id="pppeQQV8sNg-4FHpJXWI-570" value="⭐️" style="text;html=1;align=center;verticalAlign=middle;whiteSpace=wrap;rounded=1;fontSize=20;glass=0;shadow=0;fontFamily=Helvetica;fillColor=#f5f5f5;strokeColor=#666666;fontColor=#333333;" vertex="1" parent="1">
          <mxGeometry x="280" y="1860" width="43.33" height="40" as="geometry" />
        </mxCell>
        <mxCell id="pppeQQV8sNg-4FHpJXWI-571" value="⭐️" style="text;html=1;align=center;verticalAlign=middle;whiteSpace=wrap;rounded=1;fontSize=20;glass=0;shadow=0;fontFamily=Helvetica;fillColor=#f5f5f5;strokeColor=#666666;fontColor=#333333;" vertex="1" parent="1">
          <mxGeometry x="2180" y="2400" width="43.33" height="40" as="geometry" />
        </mxCell>
        <mxCell id="pppeQQV8sNg-4FHpJXWI-572" value="⭐️" style="text;html=1;align=center;verticalAlign=middle;whiteSpace=wrap;rounded=1;fontSize=20;glass=0;shadow=0;fontFamily=Helvetica;fillColor=#f5f5f5;strokeColor=#666666;fontColor=#333333;" vertex="1" parent="1">
          <mxGeometry x="1700" y="2420" width="43.33" height="40" as="geometry" />
        </mxCell>
        <mxCell id="pppeQQV8sNg-4FHpJXWI-573" value="" style="rounded=0;whiteSpace=wrap;html=1;" vertex="1" parent="1">
          <mxGeometry x="2370" y="2370" width="440" height="420" as="geometry" />
        </mxCell>
        <mxCell id="pppeQQV8sNg-4FHpJXWI-530" value="🔑" style="text;html=1;align=center;verticalAlign=middle;whiteSpace=wrap;rounded=1;fontSize=20;fillColor=#fad9d5;strokeColor=#ae4132;" vertex="1" parent="1">
          <mxGeometry x="2380" y="2380" width="40" height="40" as="geometry" />
        </mxCell>
        <mxCell id="pppeQQV8sNg-4FHpJXWI-574" style="edgeStyle=orthogonalEdgeStyle;rounded=0;orthogonalLoop=1;jettySize=auto;html=1;entryX=0.5;entryY=1;entryDx=0;entryDy=0;" edge="1" parent="1" source="pppeQQV8sNg-4FHpJXWI-575" target="pppeQQV8sNg-4FHpJXWI-578">
          <mxGeometry relative="1" as="geometry" />
        </mxCell>
        <mxCell id="pppeQQV8sNg-4FHpJXWI-575" value="" style="rounded=0;whiteSpace=wrap;html=1;" vertex="1" parent="1">
          <mxGeometry x="2450" y="2540" width="280" height="140" as="geometry" />
        </mxCell>
        <mxCell id="pppeQQV8sNg-4FHpJXWI-576" style="edgeStyle=orthogonalEdgeStyle;rounded=0;orthogonalLoop=1;jettySize=auto;html=1;entryX=0.5;entryY=1;entryDx=0;entryDy=0;" edge="1" parent="1" source="pppeQQV8sNg-4FHpJXWI-577" target="pppeQQV8sNg-4FHpJXWI-575">
          <mxGeometry relative="1" as="geometry" />
        </mxCell>
        <mxCell id="pppeQQV8sNg-4FHpJXWI-577" value="start" style="rounded=0;whiteSpace=wrap;html=1;fillColor=#b0e3e6;strokeColor=#0e8088;" vertex="1" parent="1">
          <mxGeometry x="2550" y="2720" width="80" height="40" as="geometry" />
        </mxCell>
        <mxCell id="pppeQQV8sNg-4FHpJXWI-578" value="" style="rounded=0;whiteSpace=wrap;html=1;" vertex="1" parent="1">
          <mxGeometry x="2550" y="2400" width="80" height="80" as="geometry" />
        </mxCell>
        <mxCell id="pppeQQV8sNg-4FHpJXWI-579" value="🔑" style="text;html=1;align=center;verticalAlign=middle;whiteSpace=wrap;rounded=1;fontSize=20;fillColor=#fad9d5;strokeColor=#ae4132;" vertex="1" parent="1">
          <mxGeometry x="2520" y="2600" width="40" height="40" as="geometry" />
        </mxCell>
        <mxCell id="pppeQQV8sNg-4FHpJXWI-580" value="🔑" style="text;html=1;align=center;verticalAlign=middle;whiteSpace=wrap;rounded=1;fontSize=20;fillColor=#b1ddf0;strokeColor=#10739e;" vertex="1" parent="1">
          <mxGeometry x="2630" y="2600" width="40" height="40" as="geometry" />
        </mxCell>
        <mxCell id="pppeQQV8sNg-4FHpJXWI-581" value="" style="group" vertex="1" connectable="0" parent="1">
          <mxGeometry x="2540" y="2510" width="100" height="60" as="geometry" />
        </mxCell>
        <mxCell id="pppeQQV8sNg-4FHpJXWI-582" value="" style="rounded=1;whiteSpace=wrap;html=1;dashed=1;dashPattern=1 4;" vertex="1" parent="pppeQQV8sNg-4FHpJXWI-581">
          <mxGeometry width="100" height="60" as="geometry" />
        </mxCell>
        <mxCell id="pppeQQV8sNg-4FHpJXWI-583" value="🔒" style="text;html=1;align=center;verticalAlign=middle;whiteSpace=wrap;rounded=1;fontSize=20;fillColor=#fad9d5;strokeColor=#ae4132;" vertex="1" parent="pppeQQV8sNg-4FHpJXWI-581">
          <mxGeometry x="10" y="10" width="40" height="40" as="geometry" />
        </mxCell>
        <mxCell id="pppeQQV8sNg-4FHpJXWI-584" value="🔒" style="text;html=1;align=center;verticalAlign=middle;whiteSpace=wrap;rounded=1;fontSize=20;fillColor=#b1ddf0;strokeColor=#10739e;" vertex="1" parent="pppeQQV8sNg-4FHpJXWI-581">
          <mxGeometry x="50" y="10" width="40" height="40" as="geometry" />
        </mxCell>
        <mxCell id="pppeQQV8sNg-4FHpJXWI-587" value="workload: high" style="text;html=1;align=left;verticalAlign=top;whiteSpace=wrap;rounded=0;" vertex="1" parent="1">
          <mxGeometry x="2380" y="2420" width="140" height="60" as="geometry" />
        </mxCell>
        <mxCell id="pppeQQV8sNg-4FHpJXWI-588" value="workload: low" style="text;html=1;align=left;verticalAlign=top;whiteSpace=wrap;rounded=0;" vertex="1" parent="1">
          <mxGeometry x="1410" y="2420" width="140" height="60" as="geometry" />
        </mxCell>
        <mxCell id="pppeQQV8sNg-4FHpJXWI-589" value="⭐️" style="text;html=1;align=center;verticalAlign=middle;whiteSpace=wrap;rounded=1;fontSize=20;glass=0;shadow=0;fontFamily=Helvetica;fillColor=#f5f5f5;strokeColor=#666666;fontColor=#333333;" vertex="1" parent="1">
          <mxGeometry x="2570" y="2420" width="43.33" height="40" as="geometry" />
        </mxCell>
        <mxCell id="pppeQQV8sNg-4FHpJXWI-604" style="edgeStyle=orthogonalEdgeStyle;rounded=0;orthogonalLoop=1;jettySize=auto;html=1;entryX=0.5;entryY=1;entryDx=0;entryDy=0;" edge="1" parent="1" source="pppeQQV8sNg-4FHpJXWI-605" target="pppeQQV8sNg-4FHpJXWI-608">
          <mxGeometry relative="1" as="geometry" />
        </mxCell>
        <mxCell id="pppeQQV8sNg-4FHpJXWI-605" value="" style="rounded=0;whiteSpace=wrap;html=1;" vertex="1" parent="1">
          <mxGeometry x="2640" y="750" width="280" height="140" as="geometry" />
        </mxCell>
        <mxCell id="pppeQQV8sNg-4FHpJXWI-606" style="edgeStyle=orthogonalEdgeStyle;rounded=0;orthogonalLoop=1;jettySize=auto;html=1;entryX=0.5;entryY=1;entryDx=0;entryDy=0;" edge="1" parent="1" source="pppeQQV8sNg-4FHpJXWI-607" target="pppeQQV8sNg-4FHpJXWI-605">
          <mxGeometry relative="1" as="geometry" />
        </mxCell>
        <mxCell id="pppeQQV8sNg-4FHpJXWI-607" value="start" style="rounded=0;whiteSpace=wrap;html=1;fillColor=#b0e3e6;strokeColor=#0e8088;" vertex="1" parent="1">
          <mxGeometry x="2740" y="930" width="80" height="40" as="geometry" />
        </mxCell>
        <mxCell id="pppeQQV8sNg-4FHpJXWI-608" value="" style="rounded=0;whiteSpace=wrap;html=1;" vertex="1" parent="1">
          <mxGeometry x="2740" y="620" width="80" height="80" as="geometry" />
        </mxCell>
        <mxCell id="pppeQQV8sNg-4FHpJXWI-609" value="🔑" style="text;html=1;align=center;verticalAlign=middle;whiteSpace=wrap;rounded=1;fontSize=20;fillColor=#fad9d5;strokeColor=#ae4132;" vertex="1" parent="1">
          <mxGeometry x="2700" y="820" width="40" height="40" as="geometry" />
        </mxCell>
        <mxCell id="pppeQQV8sNg-4FHpJXWI-610" value="" style="group" vertex="1" connectable="0" parent="1">
          <mxGeometry x="2710" y="730" width="140" height="60" as="geometry" />
        </mxCell>
        <mxCell id="pppeQQV8sNg-4FHpJXWI-611" value="" style="rounded=1;whiteSpace=wrap;html=1;dashed=1;dashPattern=1 4;" vertex="1" parent="pppeQQV8sNg-4FHpJXWI-610">
          <mxGeometry width="140" height="60" as="geometry" />
        </mxCell>
        <mxCell id="pppeQQV8sNg-4FHpJXWI-612" value="🔒" style="text;html=1;align=center;verticalAlign=middle;whiteSpace=wrap;rounded=1;fontSize=20;fillColor=#fad9d5;strokeColor=#ae4132;" vertex="1" parent="pppeQQV8sNg-4FHpJXWI-610">
          <mxGeometry x="10" y="10" width="40" height="40" as="geometry" />
        </mxCell>
        <mxCell id="pppeQQV8sNg-4FHpJXWI-613" value="🔒" style="text;html=1;align=center;verticalAlign=middle;whiteSpace=wrap;rounded=1;fontSize=20;fillColor=#b1ddf0;strokeColor=#10739e;" vertex="1" parent="pppeQQV8sNg-4FHpJXWI-610">
          <mxGeometry x="50" y="10" width="40" height="40" as="geometry" />
        </mxCell>
        <mxCell id="pppeQQV8sNg-4FHpJXWI-614" value="🔒" style="text;html=1;align=center;verticalAlign=middle;whiteSpace=wrap;rounded=1;fontSize=20;fillColor=#d5e8d4;strokeColor=#82b366;" vertex="1" parent="pppeQQV8sNg-4FHpJXWI-610">
          <mxGeometry x="90" y="10" width="40" height="40" as="geometry" />
        </mxCell>
        <mxCell id="pppeQQV8sNg-4FHpJXWI-615" value="🔑" style="text;html=1;align=center;verticalAlign=middle;whiteSpace=wrap;rounded=1;fontSize=20;fillColor=#b1ddf0;strokeColor=#10739e;" vertex="1" parent="1">
          <mxGeometry x="2760" y="820" width="40" height="40" as="geometry" />
        </mxCell>
        <mxCell id="pppeQQV8sNg-4FHpJXWI-616" value="🔑" style="text;html=1;align=center;verticalAlign=middle;whiteSpace=wrap;rounded=1;fontSize=20;fillColor=#d5e8d4;strokeColor=#82b366;" vertex="1" parent="1">
          <mxGeometry x="2820" y="820" width="40" height="40" as="geometry" />
        </mxCell>
        <mxCell id="pppeQQV8sNg-4FHpJXWI-617" value="⭐️" style="text;html=1;align=center;verticalAlign=middle;whiteSpace=wrap;rounded=1;fontSize=20;glass=0;shadow=0;fontFamily=Helvetica;fillColor=#f5f5f5;strokeColor=#666666;fontColor=#333333;" vertex="1" parent="1">
          <mxGeometry x="2760" y="640" width="43.33" height="40" as="geometry" />
        </mxCell>
        <mxCell id="pppeQQV8sNg-4FHpJXWI-618" value="" style="rounded=0;whiteSpace=wrap;html=1;" vertex="1" parent="1">
          <mxGeometry x="2360" y="1060" width="250" height="440" as="geometry" />
        </mxCell>
        <mxCell id="pppeQQV8sNg-4FHpJXWI-619" value="" style="rounded=0;whiteSpace=wrap;html=1;" vertex="1" parent="1">
          <mxGeometry x="2410" y="1220" width="160" height="160" as="geometry" />
        </mxCell>
        <mxCell id="pppeQQV8sNg-4FHpJXWI-620" style="edgeStyle=orthogonalEdgeStyle;rounded=0;orthogonalLoop=1;jettySize=auto;html=1;entryX=0.5;entryY=1;entryDx=0;entryDy=0;" edge="1" parent="1" source="pppeQQV8sNg-4FHpJXWI-621" target="pppeQQV8sNg-4FHpJXWI-619">
          <mxGeometry relative="1" as="geometry" />
        </mxCell>
        <mxCell id="pppeQQV8sNg-4FHpJXWI-621" value="start" style="rounded=0;whiteSpace=wrap;html=1;fillColor=#b0e3e6;strokeColor=#0e8088;" vertex="1" parent="1">
          <mxGeometry x="2450" y="1420" width="80" height="40" as="geometry" />
        </mxCell>
        <mxCell id="pppeQQV8sNg-4FHpJXWI-622" style="edgeStyle=orthogonalEdgeStyle;rounded=0;orthogonalLoop=1;jettySize=auto;html=1;entryX=0.5;entryY=1;entryDx=0;entryDy=0;" edge="1" parent="1" target="pppeQQV8sNg-4FHpJXWI-623">
          <mxGeometry relative="1" as="geometry">
            <mxPoint x="2490" y="1200" as="sourcePoint" />
          </mxGeometry>
        </mxCell>
        <mxCell id="pppeQQV8sNg-4FHpJXWI-623" value="" style="rounded=0;whiteSpace=wrap;html=1;" vertex="1" parent="1">
          <mxGeometry x="2450" y="1100" width="80" height="80" as="geometry" />
        </mxCell>
        <mxCell id="pppeQQV8sNg-4FHpJXWI-625" value="🔒" style="text;html=1;align=center;verticalAlign=middle;whiteSpace=wrap;rounded=1;fontSize=20;fillColor=#fad9d5;strokeColor=#ae4132;" vertex="1" parent="1">
          <mxGeometry x="2470" y="1200" width="40" height="40" as="geometry" />
        </mxCell>
        <mxCell id="pppeQQV8sNg-4FHpJXWI-626" value="🔑" style="text;html=1;align=center;verticalAlign=middle;whiteSpace=wrap;rounded=1;fontSize=20;fillColor=#fad9d5;strokeColor=#ae4132;" vertex="1" parent="1">
          <mxGeometry x="2470" y="1280" width="40" height="40" as="geometry" />
        </mxCell>
        <mxCell id="pppeQQV8sNg-4FHpJXWI-627" value="⭐️" style="text;html=1;align=center;verticalAlign=middle;whiteSpace=wrap;rounded=1;fontSize=20;glass=0;shadow=0;fontFamily=Helvetica;fillColor=#f5f5f5;strokeColor=#666666;fontColor=#333333;" vertex="1" parent="1">
          <mxGeometry x="2470" y="1120" width="43.33" height="40" as="geometry" />
        </mxCell>
        <mxCell id="pppeQQV8sNg-4FHpJXWI-628" value="" style="rounded=0;whiteSpace=wrap;html=1;" vertex="1" parent="1">
          <mxGeometry x="2660" y="1060" width="250" height="440" as="geometry" />
        </mxCell>
        <mxCell id="pppeQQV8sNg-4FHpJXWI-629" value="" style="rounded=0;whiteSpace=wrap;html=1;" vertex="1" parent="1">
          <mxGeometry x="2710" y="1220" width="160" height="160" as="geometry" />
        </mxCell>
        <mxCell id="pppeQQV8sNg-4FHpJXWI-630" style="edgeStyle=orthogonalEdgeStyle;rounded=0;orthogonalLoop=1;jettySize=auto;html=1;entryX=0.5;entryY=1;entryDx=0;entryDy=0;" edge="1" parent="1" source="pppeQQV8sNg-4FHpJXWI-631" target="pppeQQV8sNg-4FHpJXWI-629">
          <mxGeometry relative="1" as="geometry" />
        </mxCell>
        <mxCell id="pppeQQV8sNg-4FHpJXWI-631" value="start" style="rounded=0;whiteSpace=wrap;html=1;fillColor=#b0e3e6;strokeColor=#0e8088;" vertex="1" parent="1">
          <mxGeometry x="2750" y="1420" width="80" height="40" as="geometry" />
        </mxCell>
        <mxCell id="pppeQQV8sNg-4FHpJXWI-632" style="edgeStyle=orthogonalEdgeStyle;rounded=0;orthogonalLoop=1;jettySize=auto;html=1;entryX=0.5;entryY=1;entryDx=0;entryDy=0;" edge="1" parent="1" target="pppeQQV8sNg-4FHpJXWI-633">
          <mxGeometry relative="1" as="geometry">
            <mxPoint x="2790" y="1200" as="sourcePoint" />
          </mxGeometry>
        </mxCell>
        <mxCell id="pppeQQV8sNg-4FHpJXWI-633" value="" style="rounded=0;whiteSpace=wrap;html=1;" vertex="1" parent="1">
          <mxGeometry x="2750" y="1100" width="80" height="80" as="geometry" />
        </mxCell>
        <mxCell id="pppeQQV8sNg-4FHpJXWI-636" value="⭐️" style="text;html=1;align=center;verticalAlign=middle;whiteSpace=wrap;rounded=1;fontSize=20;glass=0;shadow=0;fontFamily=Helvetica;fillColor=#f5f5f5;strokeColor=#666666;fontColor=#333333;" vertex="1" parent="1">
          <mxGeometry x="2770" y="1120" width="43.33" height="40" as="geometry" />
        </mxCell>
        <mxCell id="pppeQQV8sNg-4FHpJXWI-637" value="" style="rounded=0;whiteSpace=wrap;html=1;" vertex="1" parent="1">
          <mxGeometry x="2950" y="1060" width="250" height="440" as="geometry" />
        </mxCell>
        <mxCell id="pppeQQV8sNg-4FHpJXWI-638" value="" style="rounded=0;whiteSpace=wrap;html=1;" vertex="1" parent="1">
          <mxGeometry x="3000" y="1220" width="160" height="160" as="geometry" />
        </mxCell>
        <mxCell id="pppeQQV8sNg-4FHpJXWI-639" style="edgeStyle=orthogonalEdgeStyle;rounded=0;orthogonalLoop=1;jettySize=auto;html=1;entryX=0.5;entryY=1;entryDx=0;entryDy=0;" edge="1" parent="1" source="pppeQQV8sNg-4FHpJXWI-640" target="pppeQQV8sNg-4FHpJXWI-638">
          <mxGeometry relative="1" as="geometry" />
        </mxCell>
        <mxCell id="pppeQQV8sNg-4FHpJXWI-640" value="start" style="rounded=0;whiteSpace=wrap;html=1;fillColor=#b0e3e6;strokeColor=#0e8088;" vertex="1" parent="1">
          <mxGeometry x="3040" y="1420" width="80" height="40" as="geometry" />
        </mxCell>
        <mxCell id="pppeQQV8sNg-4FHpJXWI-641" style="edgeStyle=orthogonalEdgeStyle;rounded=0;orthogonalLoop=1;jettySize=auto;html=1;entryX=0.5;entryY=1;entryDx=0;entryDy=0;" edge="1" parent="1" target="pppeQQV8sNg-4FHpJXWI-642">
          <mxGeometry relative="1" as="geometry">
            <mxPoint x="3080" y="1200" as="sourcePoint" />
          </mxGeometry>
        </mxCell>
        <mxCell id="pppeQQV8sNg-4FHpJXWI-642" value="" style="rounded=0;whiteSpace=wrap;html=1;" vertex="1" parent="1">
          <mxGeometry x="3040" y="1100" width="80" height="80" as="geometry" />
        </mxCell>
        <mxCell id="pppeQQV8sNg-4FHpJXWI-643" value="🔒" style="text;html=1;align=center;verticalAlign=middle;whiteSpace=wrap;rounded=1;fontSize=20;fillColor=#fad9d5;strokeColor=#ae4132;" vertex="1" parent="1">
          <mxGeometry x="3060" y="1200" width="40" height="40" as="geometry" />
        </mxCell>
        <mxCell id="pppeQQV8sNg-4FHpJXWI-644" value="🔑" style="text;html=1;align=center;verticalAlign=middle;whiteSpace=wrap;rounded=1;fontSize=20;fillColor=#fad9d5;strokeColor=#ae4132;" vertex="1" parent="1">
          <mxGeometry x="3060" y="1280" width="40" height="40" as="geometry" />
        </mxCell>
        <mxCell id="pppeQQV8sNg-4FHpJXWI-645" value="⭐️" style="text;html=1;align=center;verticalAlign=middle;whiteSpace=wrap;rounded=1;fontSize=20;glass=0;shadow=0;fontFamily=Helvetica;fillColor=#f5f5f5;strokeColor=#666666;fontColor=#333333;" vertex="1" parent="1">
          <mxGeometry x="3060" y="1120" width="43.33" height="40" as="geometry" />
        </mxCell>
        <mxCell id="pppeQQV8sNg-4FHpJXWI-646" value="🔑" style="text;html=1;align=center;verticalAlign=middle;whiteSpace=wrap;rounded=1;fontSize=20;fillColor=#fad9d5;strokeColor=#ae4132;" vertex="1" parent="1">
          <mxGeometry x="2370" y="1070" width="40" height="40" as="geometry" />
        </mxCell>
        <mxCell id="pppeQQV8sNg-4FHpJXWI-647" value="🔑" style="text;html=1;align=center;verticalAlign=middle;whiteSpace=wrap;rounded=1;fontSize=20;fillColor=#b1ddf0;strokeColor=#10739e;" vertex="1" parent="1">
          <mxGeometry x="2670" y="1070" width="40" height="40" as="geometry" />
        </mxCell>
        <mxCell id="pppeQQV8sNg-4FHpJXWI-648" value="🔑" style="text;html=1;align=center;verticalAlign=middle;whiteSpace=wrap;rounded=1;fontSize=20;fillColor=#d5e8d4;strokeColor=#82b366;" vertex="1" parent="1">
          <mxGeometry x="2960" y="1070" width="40" height="40" as="geometry" />
        </mxCell>
        <mxCell id="pppeQQV8sNg-4FHpJXWI-651" style="edgeStyle=orthogonalEdgeStyle;rounded=0;orthogonalLoop=1;jettySize=auto;html=1;entryX=0.5;entryY=1;entryDx=0;entryDy=0;" edge="1" parent="1" source="pppeQQV8sNg-4FHpJXWI-655" target="pppeQQV8sNg-4FHpJXWI-658">
          <mxGeometry relative="1" as="geometry" />
        </mxCell>
        <mxCell id="pppeQQV8sNg-4FHpJXWI-652" style="edgeStyle=orthogonalEdgeStyle;rounded=0;orthogonalLoop=1;jettySize=auto;html=1;exitX=1;exitY=0.25;exitDx=0;exitDy=0;entryX=0;entryY=0.5;entryDx=0;entryDy=0;" edge="1" parent="1" source="pppeQQV8sNg-4FHpJXWI-655" target="pppeQQV8sNg-4FHpJXWI-659">
          <mxGeometry relative="1" as="geometry" />
        </mxCell>
        <mxCell id="pppeQQV8sNg-4FHpJXWI-653" style="edgeStyle=orthogonalEdgeStyle;rounded=0;orthogonalLoop=1;jettySize=auto;html=1;exitX=1;exitY=0.5;exitDx=0;exitDy=0;" edge="1" parent="1" source="pppeQQV8sNg-4FHpJXWI-655" target="pppeQQV8sNg-4FHpJXWI-666">
          <mxGeometry relative="1" as="geometry" />
        </mxCell>
        <mxCell id="pppeQQV8sNg-4FHpJXWI-654" style="edgeStyle=orthogonalEdgeStyle;rounded=0;orthogonalLoop=1;jettySize=auto;html=1;exitX=1;exitY=0.75;exitDx=0;exitDy=0;entryX=0;entryY=0.5;entryDx=0;entryDy=0;" edge="1" parent="1" source="pppeQQV8sNg-4FHpJXWI-655" target="pppeQQV8sNg-4FHpJXWI-668">
          <mxGeometry relative="1" as="geometry" />
        </mxCell>
        <mxCell id="pppeQQV8sNg-4FHpJXWI-655" value="" style="rounded=0;whiteSpace=wrap;html=1;" vertex="1" parent="1">
          <mxGeometry x="2900" y="1780" width="160" height="280" as="geometry" />
        </mxCell>
        <mxCell id="pppeQQV8sNg-4FHpJXWI-656" style="edgeStyle=orthogonalEdgeStyle;rounded=0;orthogonalLoop=1;jettySize=auto;html=1;entryX=0.5;entryY=1;entryDx=0;entryDy=0;" edge="1" parent="1" source="pppeQQV8sNg-4FHpJXWI-657" target="pppeQQV8sNg-4FHpJXWI-655">
          <mxGeometry relative="1" as="geometry" />
        </mxCell>
        <mxCell id="pppeQQV8sNg-4FHpJXWI-657" value="start" style="rounded=0;whiteSpace=wrap;html=1;fillColor=#b0e3e6;strokeColor=#0e8088;" vertex="1" parent="1">
          <mxGeometry x="2940" y="2100" width="80" height="40" as="geometry" />
        </mxCell>
        <mxCell id="pppeQQV8sNg-4FHpJXWI-658" value="" style="rounded=0;whiteSpace=wrap;html=1;" vertex="1" parent="1">
          <mxGeometry x="2940" y="1650" width="80" height="80" as="geometry" />
        </mxCell>
        <mxCell id="pppeQQV8sNg-4FHpJXWI-659" value="" style="rounded=0;whiteSpace=wrap;html=1;" vertex="1" parent="1">
          <mxGeometry x="3120" y="1710" width="120" height="120" as="geometry" />
        </mxCell>
        <mxCell id="pppeQQV8sNg-4FHpJXWI-660" value="🔑" style="text;html=1;align=center;verticalAlign=middle;whiteSpace=wrap;rounded=1;fontSize=20;fillColor=#fad9d5;strokeColor=#ae4132;" vertex="1" parent="1">
          <mxGeometry x="3160" y="1750" width="40" height="40" as="geometry" />
        </mxCell>
        <mxCell id="pppeQQV8sNg-4FHpJXWI-661" value="" style="group" vertex="1" connectable="0" parent="1">
          <mxGeometry x="2910" y="1760" width="140" height="60" as="geometry" />
        </mxCell>
        <mxCell id="pppeQQV8sNg-4FHpJXWI-662" value="" style="rounded=1;whiteSpace=wrap;html=1;dashed=1;dashPattern=1 4;" vertex="1" parent="pppeQQV8sNg-4FHpJXWI-661">
          <mxGeometry width="140" height="60" as="geometry" />
        </mxCell>
        <mxCell id="pppeQQV8sNg-4FHpJXWI-663" value="🔒" style="text;html=1;align=center;verticalAlign=middle;whiteSpace=wrap;rounded=1;fontSize=20;fillColor=#fad9d5;strokeColor=#ae4132;" vertex="1" parent="pppeQQV8sNg-4FHpJXWI-661">
          <mxGeometry x="10" y="10" width="40" height="40" as="geometry" />
        </mxCell>
        <mxCell id="pppeQQV8sNg-4FHpJXWI-664" value="🔒" style="text;html=1;align=center;verticalAlign=middle;whiteSpace=wrap;rounded=1;fontSize=20;fillColor=#b1ddf0;strokeColor=#10739e;" vertex="1" parent="pppeQQV8sNg-4FHpJXWI-661">
          <mxGeometry x="50" y="10" width="40" height="40" as="geometry" />
        </mxCell>
        <mxCell id="pppeQQV8sNg-4FHpJXWI-665" value="🔒" style="text;html=1;align=center;verticalAlign=middle;whiteSpace=wrap;rounded=1;fontSize=20;fillColor=#d5e8d4;strokeColor=#82b366;" vertex="1" parent="pppeQQV8sNg-4FHpJXWI-661">
          <mxGeometry x="90" y="10" width="40" height="40" as="geometry" />
        </mxCell>
        <mxCell id="pppeQQV8sNg-4FHpJXWI-666" value="" style="rounded=0;whiteSpace=wrap;html=1;" vertex="1" parent="1">
          <mxGeometry x="3120" y="1860" width="120" height="120" as="geometry" />
        </mxCell>
        <mxCell id="pppeQQV8sNg-4FHpJXWI-667" value="🔑" style="text;html=1;align=center;verticalAlign=middle;whiteSpace=wrap;rounded=1;fontSize=20;fillColor=#b1ddf0;strokeColor=#10739e;" vertex="1" parent="1">
          <mxGeometry x="3160" y="1900" width="40" height="40" as="geometry" />
        </mxCell>
        <mxCell id="pppeQQV8sNg-4FHpJXWI-668" value="" style="rounded=0;whiteSpace=wrap;html=1;" vertex="1" parent="1">
          <mxGeometry x="3120" y="2010" width="120" height="120" as="geometry" />
        </mxCell>
        <mxCell id="pppeQQV8sNg-4FHpJXWI-669" value="🔑" style="text;html=1;align=center;verticalAlign=middle;whiteSpace=wrap;rounded=1;fontSize=20;fillColor=#d5e8d4;strokeColor=#82b366;" vertex="1" parent="1">
          <mxGeometry x="3160" y="2050" width="40" height="40" as="geometry" />
        </mxCell>
        <mxCell id="pppeQQV8sNg-4FHpJXWI-670" value="⭐️" style="text;html=1;align=center;verticalAlign=middle;whiteSpace=wrap;rounded=1;fontSize=20;glass=0;shadow=0;fontFamily=Helvetica;fillColor=#f5f5f5;strokeColor=#666666;fontColor=#333333;" vertex="1" parent="1">
          <mxGeometry x="2960" y="1670" width="43.33" height="40" as="geometry" />
        </mxCell>
        <mxCell id="pppeQQV8sNg-4FHpJXWI-677" value="&lt;font style=&quot;font-size: 15px;&quot;&gt;⚡️🔑&lt;/font&gt;" style="text;html=1;align=center;verticalAlign=middle;whiteSpace=wrap;rounded=1;fontSize=20;fillColor=#fad9d5;strokeColor=#ae4132;" vertex="1" parent="1">
          <mxGeometry x="1400" y="730" width="40" height="40" as="geometry" />
        </mxCell>
        <mxCell id="pppeQQV8sNg-4FHpJXWI-678" value="&lt;font style=&quot;font-size: 15px;&quot;&gt;⚡️🔑&lt;/font&gt;" style="text;html=1;align=center;verticalAlign=middle;whiteSpace=wrap;rounded=1;fontSize=20;fillColor=#b1ddf0;strokeColor=#10739e;" vertex="1" parent="1">
          <mxGeometry x="1440" y="730" width="40" height="40" as="geometry" />
        </mxCell>
        <mxCell id="pppeQQV8sNg-4FHpJXWI-679" value="&lt;font style=&quot;font-size: 15px;&quot;&gt;⚡️🔑&lt;/font&gt;" style="text;html=1;align=center;verticalAlign=middle;whiteSpace=wrap;rounded=1;fontSize=20;fillColor=#e1d5e7;strokeColor=#9673a6;" vertex="1" parent="1">
          <mxGeometry x="1480" y="730" width="40" height="40" as="geometry" />
        </mxCell>
        <mxCell id="pppeQQV8sNg-4FHpJXWI-680" value="&lt;font style=&quot;font-size: 15px;&quot;&gt;⚡️🔑&lt;/font&gt;" style="text;html=1;align=center;verticalAlign=middle;whiteSpace=wrap;rounded=1;fontSize=20;fillColor=#d5e8d4;strokeColor=#82b366;" vertex="1" parent="1">
          <mxGeometry x="1520" y="730" width="40" height="40" as="geometry" />
        </mxCell>
        <mxCell id="pppeQQV8sNg-4FHpJXWI-681" value="&lt;font style=&quot;font-size: 15px;&quot;&gt;⚡️🔑&lt;/font&gt;" style="text;html=1;align=center;verticalAlign=middle;whiteSpace=wrap;rounded=1;fontSize=20;fillColor=#f5f5f5;strokeColor=#666666;fontColor=#333333;" vertex="1" parent="1">
          <mxGeometry x="1360" y="730" width="40" height="40" as="geometry" />
        </mxCell>
        <mxCell id="pppeQQV8sNg-4FHpJXWI-682" value="🔒" style="text;html=1;align=center;verticalAlign=middle;whiteSpace=wrap;rounded=1;fontSize=20;fillColor=#fad9d5;strokeColor=#ae4132;" vertex="1" parent="1">
          <mxGeometry x="2770" y="1200" width="40" height="40" as="geometry" />
        </mxCell>
        <mxCell id="pppeQQV8sNg-4FHpJXWI-683" value="🔑" style="text;html=1;align=center;verticalAlign=middle;whiteSpace=wrap;rounded=1;fontSize=20;fillColor=#fad9d5;strokeColor=#ae4132;" vertex="1" parent="1">
          <mxGeometry x="2770" y="1280" width="40" height="40" as="geometry" />
        </mxCell>
        <mxCell id="pppeQQV8sNg-4FHpJXWI-686" value="Text" style="text;html=1;align=left;verticalAlign=top;whiteSpace=wrap;rounded=0;" vertex="1" parent="1">
          <mxGeometry x="3280" y="1080" width="130" height="90" as="geometry" />
        </mxCell>
      </root>
    </mxGraphModel>
  </diagram>
</mxfile>
